<?xml version="1.0" encoding="utf-8" standalone="no"?>
<!DOCTYPE svg PUBLIC "-//W3C//DTD SVG 1.1//EN"
  "http://www.w3.org/Graphics/SVG/1.1/DTD/svg11.dtd">
<svg xmlns:xlink="http://www.w3.org/1999/xlink" width="720pt" height="720pt" viewBox="0 0 720 720" xmlns="http://www.w3.org/2000/svg" version="1.1">
 <metadata>
  <rdf:RDF xmlns:dc="http://purl.org/dc/elements/1.1/" xmlns:cc="http://creativecommons.org/ns#" xmlns:rdf="http://www.w3.org/1999/02/22-rdf-syntax-ns#">
   <cc:Work>
    <dc:type rdf:resource="http://purl.org/dc/dcmitype/StillImage"/>
    <dc:date>2025-08-07T18:29:52.057822</dc:date>
    <dc:format>image/svg+xml</dc:format>
    <dc:creator>
     <cc:Agent>
      <dc:title>Matplotlib v3.8.4, https://matplotlib.org/</dc:title>
     </cc:Agent>
    </dc:creator>
   </cc:Work>
  </rdf:RDF>
 </metadata>
 <defs>
  <style type="text/css">*{stroke-linejoin: round; stroke-linecap: butt}</style>
 </defs>
 <g id="figure_1">
  <g id="patch_1">
   <path d="M 0 720 
L 720 720 
L 720 0 
L 0 0 
z
" style="fill: #ffffff"/>
  </g>
  <g id="axes_1">
   <g id="LineCollection_1">
    <path d="M 142.164 503.642571 
L 142.164 503.642571 
L 142.164 565.860857 
L 142.164 565.860857 
" clip-path="url(#p25cf34273a)" style="fill: none; stroke: #333333; stroke-width: 0.5"/>
    <path d="M 142.164 441.424286 
L 142.164 441.424286 
L 142.164 534.751714 
L 142.164 534.751714 
" clip-path="url(#p25cf34273a)" style="fill: none; stroke: #333333; stroke-width: 0.5"/>
    <path d="M 142.164 379.206 
L 92.53328 379.206 
L 92.53328 488.088 
L 142.164 488.088 
" clip-path="url(#p25cf34273a)" style="fill: none; stroke: #333333; stroke-width: 0.5"/>
    <path d="M 142.164 316.987714 
L 87.39385 316.987714 
L 87.39385 433.647 
L 92.53328 433.647 
" clip-path="url(#p25cf34273a)" style="fill: none; stroke: #333333; stroke-width: 0.5"/>
    <path d="M 142.164 254.769429 
L 62.510867 254.769429 
L 62.510867 375.317357 
L 87.39385 375.317357 
" clip-path="url(#p25cf34273a)" style="fill: none; stroke: #333333; stroke-width: 0.5"/>
    <path d="M 142.164 192.551143 
L 19.112571 192.551143 
L 19.112571 315.043393 
L 62.510867 315.043393 
" clip-path="url(#p25cf34273a)" style="fill: none; stroke: #333333; stroke-width: 0.5"/>
   </g>
  </g>
  <g id="axes_2">
   <g id="LineCollection_2">
    <path d="M 365.0805 148.482 
L 365.0805 148.482 
L 397.3815 148.482 
L 397.3815 148.482 
" clip-path="url(#pac50514cd6)" style="fill: none; stroke: #333333; stroke-width: 0.5"/>
    <path d="M 332.7795 148.482 
L 332.7795 148.482 
L 381.231 148.482 
L 381.231 148.482 
" clip-path="url(#pac50514cd6)" style="fill: none; stroke: #333333; stroke-width: 0.5"/>
    <path d="M 300.4785 148.482 
L 300.4785 148.482 
L 357.00525 148.482 
L 357.00525 148.482 
" clip-path="url(#pac50514cd6)" style="fill: none; stroke: #333333; stroke-width: 0.5"/>
    <path d="M 268.1775 148.482 
L 268.1775 148.482 
L 328.741875 148.482 
L 328.741875 148.482 
" clip-path="url(#pac50514cd6)" style="fill: none; stroke: #333333; stroke-width: 0.5"/>
    <path d="M 235.8765 148.482 
L 235.8765 148.482 
L 298.459687 148.482 
L 298.459687 148.482 
" clip-path="url(#pac50514cd6)" style="fill: none; stroke: #333333; stroke-width: 0.5"/>
    <path d="M 203.5755 148.482 
L 203.5755 148.482 
L 267.168094 148.482 
L 267.168094 148.482 
" clip-path="url(#pac50514cd6)" style="fill: none; stroke: #333333; stroke-width: 0.5"/>
    <path d="M 171.2745 148.482 
L 171.2745 148.482 
L 235.371797 148.482 
L 235.371797 148.482 
" clip-path="url(#pac50514cd6)" style="fill: none; stroke: #333333; stroke-width: 0.5"/>
    <path d="M 526.5855 148.482 
L 526.5855 148.482 
L 558.8865 148.482 
L 558.8865 148.482 
" clip-path="url(#pac50514cd6)" style="fill: none; stroke: #333333; stroke-width: 0.5"/>
    <path d="M 494.2845 148.482 
L 494.2845 148.482 
L 542.736 148.482 
L 542.736 148.482 
" clip-path="url(#pac50514cd6)" style="fill: none; stroke: #333333; stroke-width: 0.5"/>
    <path d="M 461.9835 148.482 
L 461.9835 148.482 
L 518.51025 148.482 
L 518.51025 148.482 
" clip-path="url(#pac50514cd6)" style="fill: none; stroke: #333333; stroke-width: 0.5"/>
    <path d="M 429.6825 148.482 
L 429.6825 148.482 
L 490.246875 148.482 
L 490.246875 148.482 
" clip-path="url(#pac50514cd6)" style="fill: none; stroke: #333333; stroke-width: 0.5"/>
    <path d="M 203.323148 148.482 
L 203.323148 101.371721 
L 459.964687 101.371721 
L 459.964687 148.482 
" clip-path="url(#pac50514cd6)" style="fill: none; stroke: #333333; stroke-width: 0.5"/>
    <path d="M 623.4885 148.482 
L 623.4885 101.371721 
L 655.7895 101.371721 
L 655.7895 148.482 
" clip-path="url(#pac50514cd6)" style="fill: none; stroke: #333333; stroke-width: 0.5"/>
    <path d="M 591.1875 148.482 
L 591.1875 74.371304 
L 639.639 74.371304 
L 639.639 101.371721 
" clip-path="url(#pac50514cd6)" style="fill: none; stroke: #333333; stroke-width: 0.5"/>
    <path d="M 331.643918 101.371721 
L 331.643918 44.784857 
L 615.41325 44.784857 
L 615.41325 74.371304 
" clip-path="url(#pac50514cd6)" style="fill: none; stroke: #333333; stroke-width: 0.5"/>
   </g>
  </g>
  <g id="axes_3">
   <g id="patch_2">
    <path d="M 155.124 596.97 
L 671.94 596.97 
L 671.94 161.442 
L 155.124 161.442 
z
" style="fill: #ffffff"/>
   </g>
   <g id="matplotlib.axis_1">
    <g id="xtick_1">
     <g id="line2d_1">
      <path d="M 171.2745 596.97 
L 171.2745 161.442 
" clip-path="url(#p5e6ef9a93f)" style="fill: none; stroke: #cccccc; stroke-linecap: round"/>
     </g>
     <g id="text_1">
      <!-- skylake-avx512 -->
      <g style="fill: #262626" transform="translate(174.309812 691.945156) rotate(-90) scale(0.11 -0.11)">
       <defs>
        <path id="DejaVuSans-73" d="M 2834 3397 
L 2834 2853 
Q 2591 2978 2328 3040 
Q 2066 3103 1784 3103 
Q 1356 3103 1142 2972 
Q 928 2841 928 2578 
Q 928 2378 1081 2264 
Q 1234 2150 1697 2047 
L 1894 2003 
Q 2506 1872 2764 1633 
Q 3022 1394 3022 966 
Q 3022 478 2636 193 
Q 2250 -91 1575 -91 
Q 1294 -91 989 -36 
Q 684 19 347 128 
L 347 722 
Q 666 556 975 473 
Q 1284 391 1588 391 
Q 1994 391 2212 530 
Q 2431 669 2431 922 
Q 2431 1156 2273 1281 
Q 2116 1406 1581 1522 
L 1381 1569 
Q 847 1681 609 1914 
Q 372 2147 372 2553 
Q 372 3047 722 3315 
Q 1072 3584 1716 3584 
Q 2034 3584 2315 3537 
Q 2597 3491 2834 3397 
z
" transform="scale(0.015625)"/>
        <path id="DejaVuSans-6b" d="M 581 4863 
L 1159 4863 
L 1159 1991 
L 2875 3500 
L 3609 3500 
L 1753 1863 
L 3688 0 
L 2938 0 
L 1159 1709 
L 1159 0 
L 581 0 
L 581 4863 
z
" transform="scale(0.015625)"/>
        <path id="DejaVuSans-79" d="M 2059 -325 
Q 1816 -950 1584 -1140 
Q 1353 -1331 966 -1331 
L 506 -1331 
L 506 -850 
L 844 -850 
Q 1081 -850 1212 -737 
Q 1344 -625 1503 -206 
L 1606 56 
L 191 3500 
L 800 3500 
L 1894 763 
L 2988 3500 
L 3597 3500 
L 2059 -325 
z
" transform="scale(0.015625)"/>
        <path id="DejaVuSans-6c" d="M 603 4863 
L 1178 4863 
L 1178 0 
L 603 0 
L 603 4863 
z
" transform="scale(0.015625)"/>
        <path id="DejaVuSans-61" d="M 2194 1759 
Q 1497 1759 1228 1600 
Q 959 1441 959 1056 
Q 959 750 1161 570 
Q 1363 391 1709 391 
Q 2188 391 2477 730 
Q 2766 1069 2766 1631 
L 2766 1759 
L 2194 1759 
z
M 3341 1997 
L 3341 0 
L 2766 0 
L 2766 531 
Q 2569 213 2275 61 
Q 1981 -91 1556 -91 
Q 1019 -91 701 211 
Q 384 513 384 1019 
Q 384 1609 779 1909 
Q 1175 2209 1959 2209 
L 2766 2209 
L 2766 2266 
Q 2766 2663 2505 2880 
Q 2244 3097 1772 3097 
Q 1472 3097 1187 3025 
Q 903 2953 641 2809 
L 641 3341 
Q 956 3463 1253 3523 
Q 1550 3584 1831 3584 
Q 2591 3584 2966 3190 
Q 3341 2797 3341 1997 
z
" transform="scale(0.015625)"/>
        <path id="DejaVuSans-65" d="M 3597 1894 
L 3597 1613 
L 953 1613 
Q 991 1019 1311 708 
Q 1631 397 2203 397 
Q 2534 397 2845 478 
Q 3156 559 3463 722 
L 3463 178 
Q 3153 47 2828 -22 
Q 2503 -91 2169 -91 
Q 1331 -91 842 396 
Q 353 884 353 1716 
Q 353 2575 817 3079 
Q 1281 3584 2069 3584 
Q 2775 3584 3186 3129 
Q 3597 2675 3597 1894 
z
M 3022 2063 
Q 3016 2534 2758 2815 
Q 2500 3097 2075 3097 
Q 1594 3097 1305 2825 
Q 1016 2553 972 2059 
L 3022 2063 
z
" transform="scale(0.015625)"/>
        <path id="DejaVuSans-2d" d="M 313 2009 
L 1997 2009 
L 1997 1497 
L 313 1497 
L 313 2009 
z
" transform="scale(0.015625)"/>
        <path id="DejaVuSans-76" d="M 191 3500 
L 800 3500 
L 1894 563 
L 2988 3500 
L 3597 3500 
L 2284 0 
L 1503 0 
L 191 3500 
z
" transform="scale(0.015625)"/>
        <path id="DejaVuSans-78" d="M 3513 3500 
L 2247 1797 
L 3578 0 
L 2900 0 
L 1881 1375 
L 863 0 
L 184 0 
L 1544 1831 
L 300 3500 
L 978 3500 
L 1906 2253 
L 2834 3500 
L 3513 3500 
z
" transform="scale(0.015625)"/>
        <path id="DejaVuSans-35" d="M 691 4666 
L 3169 4666 
L 3169 4134 
L 1269 4134 
L 1269 2991 
Q 1406 3038 1543 3061 
Q 1681 3084 1819 3084 
Q 2600 3084 3056 2656 
Q 3513 2228 3513 1497 
Q 3513 744 3044 326 
Q 2575 -91 1722 -91 
Q 1428 -91 1123 -41 
Q 819 9 494 109 
L 494 744 
Q 775 591 1075 516 
Q 1375 441 1709 441 
Q 2250 441 2565 725 
Q 2881 1009 2881 1497 
Q 2881 1984 2565 2268 
Q 2250 2553 1709 2553 
Q 1456 2553 1204 2497 
Q 953 2441 691 2322 
L 691 4666 
z
" transform="scale(0.015625)"/>
        <path id="DejaVuSans-31" d="M 794 531 
L 1825 531 
L 1825 4091 
L 703 3866 
L 703 4441 
L 1819 4666 
L 2450 4666 
L 2450 531 
L 3481 531 
L 3481 0 
L 794 0 
L 794 531 
z
" transform="scale(0.015625)"/>
        <path id="DejaVuSans-32" d="M 1228 531 
L 3431 531 
L 3431 0 
L 469 0 
L 469 531 
Q 828 903 1448 1529 
Q 2069 2156 2228 2338 
Q 2531 2678 2651 2914 
Q 2772 3150 2772 3378 
Q 2772 3750 2511 3984 
Q 2250 4219 1831 4219 
Q 1534 4219 1204 4116 
Q 875 4013 500 3803 
L 500 4441 
Q 881 4594 1212 4672 
Q 1544 4750 1819 4750 
Q 2544 4750 2975 4387 
Q 3406 4025 3406 3419 
Q 3406 3131 3298 2873 
Q 3191 2616 2906 2266 
Q 2828 2175 2409 1742 
Q 1991 1309 1228 531 
z
" transform="scale(0.015625)"/>
       </defs>
       <use xlink:href="#DejaVuSans-73"/>
       <use xlink:href="#DejaVuSans-6b" x="52.099609"/>
       <use xlink:href="#DejaVuSans-79" x="106.384766"/>
       <use xlink:href="#DejaVuSans-6c" x="165.564453"/>
       <use xlink:href="#DejaVuSans-61" x="193.347656"/>
       <use xlink:href="#DejaVuSans-6b" x="254.626953"/>
       <use xlink:href="#DejaVuSans-65" x="308.912109"/>
       <use xlink:href="#DejaVuSans-2d" x="370.435547"/>
       <use xlink:href="#DejaVuSans-61" x="406.519531"/>
       <use xlink:href="#DejaVuSans-76" x="467.798828"/>
       <use xlink:href="#DejaVuSans-78" x="526.978516"/>
       <use xlink:href="#DejaVuSans-35" x="586.158203"/>
       <use xlink:href="#DejaVuSans-31" x="649.78125"/>
       <use xlink:href="#DejaVuSans-32" x="713.404297"/>
      </g>
     </g>
    </g>
    <g id="xtick_2">
     <g id="line2d_2">
      <path d="M 203.5755 596.97 
L 203.5755 161.442 
" clip-path="url(#p5e6ef9a93f)" style="fill: none; stroke: #cccccc; stroke-linecap: round"/>
     </g>
     <g id="text_2">
      <!-- skylake -->
      <g style="fill: #262626" transform="translate(206.610812 647.218125) rotate(-90) scale(0.11 -0.11)">
       <use xlink:href="#DejaVuSans-73"/>
       <use xlink:href="#DejaVuSans-6b" x="52.099609"/>
       <use xlink:href="#DejaVuSans-79" x="106.384766"/>
       <use xlink:href="#DejaVuSans-6c" x="165.564453"/>
       <use xlink:href="#DejaVuSans-61" x="193.347656"/>
       <use xlink:href="#DejaVuSans-6b" x="254.626953"/>
       <use xlink:href="#DejaVuSans-65" x="308.912109"/>
      </g>
     </g>
    </g>
    <g id="xtick_3">
     <g id="line2d_3">
      <path d="M 235.8765 596.97 
L 235.8765 161.442 
" clip-path="url(#p5e6ef9a93f)" style="fill: none; stroke: #cccccc; stroke-linecap: round"/>
     </g>
     <g id="text_3">
      <!-- sapphirerapids -->
      <g style="fill: #262626" transform="translate(238.911812 687.99375) rotate(-90) scale(0.11 -0.11)">
       <defs>
        <path id="DejaVuSans-70" d="M 1159 525 
L 1159 -1331 
L 581 -1331 
L 581 3500 
L 1159 3500 
L 1159 2969 
Q 1341 3281 1617 3432 
Q 1894 3584 2278 3584 
Q 2916 3584 3314 3078 
Q 3713 2572 3713 1747 
Q 3713 922 3314 415 
Q 2916 -91 2278 -91 
Q 1894 -91 1617 61 
Q 1341 213 1159 525 
z
M 3116 1747 
Q 3116 2381 2855 2742 
Q 2594 3103 2138 3103 
Q 1681 3103 1420 2742 
Q 1159 2381 1159 1747 
Q 1159 1113 1420 752 
Q 1681 391 2138 391 
Q 2594 391 2855 752 
Q 3116 1113 3116 1747 
z
" transform="scale(0.015625)"/>
        <path id="DejaVuSans-68" d="M 3513 2113 
L 3513 0 
L 2938 0 
L 2938 2094 
Q 2938 2591 2744 2837 
Q 2550 3084 2163 3084 
Q 1697 3084 1428 2787 
Q 1159 2491 1159 1978 
L 1159 0 
L 581 0 
L 581 4863 
L 1159 4863 
L 1159 2956 
Q 1366 3272 1645 3428 
Q 1925 3584 2291 3584 
Q 2894 3584 3203 3211 
Q 3513 2838 3513 2113 
z
" transform="scale(0.015625)"/>
        <path id="DejaVuSans-69" d="M 603 3500 
L 1178 3500 
L 1178 0 
L 603 0 
L 603 3500 
z
M 603 4863 
L 1178 4863 
L 1178 4134 
L 603 4134 
L 603 4863 
z
" transform="scale(0.015625)"/>
        <path id="DejaVuSans-72" d="M 2631 2963 
Q 2534 3019 2420 3045 
Q 2306 3072 2169 3072 
Q 1681 3072 1420 2755 
Q 1159 2438 1159 1844 
L 1159 0 
L 581 0 
L 581 3500 
L 1159 3500 
L 1159 2956 
Q 1341 3275 1631 3429 
Q 1922 3584 2338 3584 
Q 2397 3584 2469 3576 
Q 2541 3569 2628 3553 
L 2631 2963 
z
" transform="scale(0.015625)"/>
        <path id="DejaVuSans-64" d="M 2906 2969 
L 2906 4863 
L 3481 4863 
L 3481 0 
L 2906 0 
L 2906 525 
Q 2725 213 2448 61 
Q 2172 -91 1784 -91 
Q 1150 -91 751 415 
Q 353 922 353 1747 
Q 353 2572 751 3078 
Q 1150 3584 1784 3584 
Q 2172 3584 2448 3432 
Q 2725 3281 2906 2969 
z
M 947 1747 
Q 947 1113 1208 752 
Q 1469 391 1925 391 
Q 2381 391 2643 752 
Q 2906 1113 2906 1747 
Q 2906 2381 2643 2742 
Q 2381 3103 1925 3103 
Q 1469 3103 1208 2742 
Q 947 2381 947 1747 
z
" transform="scale(0.015625)"/>
       </defs>
       <use xlink:href="#DejaVuSans-73"/>
       <use xlink:href="#DejaVuSans-61" x="52.099609"/>
       <use xlink:href="#DejaVuSans-70" x="113.378906"/>
       <use xlink:href="#DejaVuSans-70" x="176.855469"/>
       <use xlink:href="#DejaVuSans-68" x="240.332031"/>
       <use xlink:href="#DejaVuSans-69" x="303.710938"/>
       <use xlink:href="#DejaVuSans-72" x="331.494141"/>
       <use xlink:href="#DejaVuSans-65" x="370.357422"/>
       <use xlink:href="#DejaVuSans-72" x="431.880859"/>
       <use xlink:href="#DejaVuSans-61" x="472.994141"/>
       <use xlink:href="#DejaVuSans-70" x="534.273438"/>
       <use xlink:href="#DejaVuSans-69" x="597.75"/>
       <use xlink:href="#DejaVuSans-64" x="625.533203"/>
       <use xlink:href="#DejaVuSans-73" x="689.009766"/>
      </g>
     </g>
    </g>
    <g id="xtick_4">
     <g id="line2d_4">
      <path d="M 268.1775 596.97 
L 268.1775 161.442 
" clip-path="url(#p5e6ef9a93f)" style="fill: none; stroke: #cccccc; stroke-linecap: round"/>
     </g>
     <g id="text_4">
      <!-- sandybridge -->
      <g style="fill: #262626" transform="translate(271.212812 674.702656) rotate(-90) scale(0.11 -0.11)">
       <defs>
        <path id="DejaVuSans-6e" d="M 3513 2113 
L 3513 0 
L 2938 0 
L 2938 2094 
Q 2938 2591 2744 2837 
Q 2550 3084 2163 3084 
Q 1697 3084 1428 2787 
Q 1159 2491 1159 1978 
L 1159 0 
L 581 0 
L 581 3500 
L 1159 3500 
L 1159 2956 
Q 1366 3272 1645 3428 
Q 1925 3584 2291 3584 
Q 2894 3584 3203 3211 
Q 3513 2838 3513 2113 
z
" transform="scale(0.015625)"/>
        <path id="DejaVuSans-62" d="M 3116 1747 
Q 3116 2381 2855 2742 
Q 2594 3103 2138 3103 
Q 1681 3103 1420 2742 
Q 1159 2381 1159 1747 
Q 1159 1113 1420 752 
Q 1681 391 2138 391 
Q 2594 391 2855 752 
Q 3116 1113 3116 1747 
z
M 1159 2969 
Q 1341 3281 1617 3432 
Q 1894 3584 2278 3584 
Q 2916 3584 3314 3078 
Q 3713 2572 3713 1747 
Q 3713 922 3314 415 
Q 2916 -91 2278 -91 
Q 1894 -91 1617 61 
Q 1341 213 1159 525 
L 1159 0 
L 581 0 
L 581 4863 
L 1159 4863 
L 1159 2969 
z
" transform="scale(0.015625)"/>
        <path id="DejaVuSans-67" d="M 2906 1791 
Q 2906 2416 2648 2759 
Q 2391 3103 1925 3103 
Q 1463 3103 1205 2759 
Q 947 2416 947 1791 
Q 947 1169 1205 825 
Q 1463 481 1925 481 
Q 2391 481 2648 825 
Q 2906 1169 2906 1791 
z
M 3481 434 
Q 3481 -459 3084 -895 
Q 2688 -1331 1869 -1331 
Q 1566 -1331 1297 -1286 
Q 1028 -1241 775 -1147 
L 775 -588 
Q 1028 -725 1275 -790 
Q 1522 -856 1778 -856 
Q 2344 -856 2625 -561 
Q 2906 -266 2906 331 
L 2906 616 
Q 2728 306 2450 153 
Q 2172 0 1784 0 
Q 1141 0 747 490 
Q 353 981 353 1791 
Q 353 2603 747 3093 
Q 1141 3584 1784 3584 
Q 2172 3584 2450 3431 
Q 2728 3278 2906 2969 
L 2906 3500 
L 3481 3500 
L 3481 434 
z
" transform="scale(0.015625)"/>
       </defs>
       <use xlink:href="#DejaVuSans-73"/>
       <use xlink:href="#DejaVuSans-61" x="52.099609"/>
       <use xlink:href="#DejaVuSans-6e" x="113.378906"/>
       <use xlink:href="#DejaVuSans-64" x="176.757812"/>
       <use xlink:href="#DejaVuSans-79" x="240.234375"/>
       <use xlink:href="#DejaVuSans-62" x="299.414062"/>
       <use xlink:href="#DejaVuSans-72" x="362.890625"/>
       <use xlink:href="#DejaVuSans-69" x="404.003906"/>
       <use xlink:href="#DejaVuSans-64" x="431.787109"/>
       <use xlink:href="#DejaVuSans-67" x="495.263672"/>
       <use xlink:href="#DejaVuSans-65" x="558.740234"/>
      </g>
     </g>
    </g>
    <g id="xtick_5">
     <g id="line2d_5">
      <path d="M 300.4785 596.97 
L 300.4785 161.442 
" clip-path="url(#p5e6ef9a93f)" style="fill: none; stroke: #cccccc; stroke-linecap: round"/>
     </g>
     <g id="text_5">
      <!-- ivybridge -->
      <g style="fill: #262626" transform="translate(303.513812 657.843438) rotate(-90) scale(0.11 -0.11)">
       <use xlink:href="#DejaVuSans-69"/>
       <use xlink:href="#DejaVuSans-76" x="27.783203"/>
       <use xlink:href="#DejaVuSans-79" x="86.962891"/>
       <use xlink:href="#DejaVuSans-62" x="146.142578"/>
       <use xlink:href="#DejaVuSans-72" x="209.619141"/>
       <use xlink:href="#DejaVuSans-69" x="250.732422"/>
       <use xlink:href="#DejaVuSans-64" x="278.515625"/>
       <use xlink:href="#DejaVuSans-67" x="341.992188"/>
       <use xlink:href="#DejaVuSans-65" x="405.46875"/>
      </g>
     </g>
    </g>
    <g id="xtick_6">
     <g id="line2d_6">
      <path d="M 332.7795 596.97 
L 332.7795 161.442 
" clip-path="url(#p5e6ef9a93f)" style="fill: none; stroke: #cccccc; stroke-linecap: round"/>
     </g>
     <g id="text_6">
      <!-- icelake-server -->
      <g style="fill: #262626" transform="translate(335.814812 683.669375) rotate(-90) scale(0.11 -0.11)">
       <defs>
        <path id="DejaVuSans-63" d="M 3122 3366 
L 3122 2828 
Q 2878 2963 2633 3030 
Q 2388 3097 2138 3097 
Q 1578 3097 1268 2742 
Q 959 2388 959 1747 
Q 959 1106 1268 751 
Q 1578 397 2138 397 
Q 2388 397 2633 464 
Q 2878 531 3122 666 
L 3122 134 
Q 2881 22 2623 -34 
Q 2366 -91 2075 -91 
Q 1284 -91 818 406 
Q 353 903 353 1747 
Q 353 2603 823 3093 
Q 1294 3584 2113 3584 
Q 2378 3584 2631 3529 
Q 2884 3475 3122 3366 
z
" transform="scale(0.015625)"/>
       </defs>
       <use xlink:href="#DejaVuSans-69"/>
       <use xlink:href="#DejaVuSans-63" x="27.783203"/>
       <use xlink:href="#DejaVuSans-65" x="82.763672"/>
       <use xlink:href="#DejaVuSans-6c" x="144.287109"/>
       <use xlink:href="#DejaVuSans-61" x="172.070312"/>
       <use xlink:href="#DejaVuSans-6b" x="233.349609"/>
       <use xlink:href="#DejaVuSans-65" x="287.634766"/>
       <use xlink:href="#DejaVuSans-2d" x="349.158203"/>
       <use xlink:href="#DejaVuSans-73" x="385.242188"/>
       <use xlink:href="#DejaVuSans-65" x="437.341797"/>
       <use xlink:href="#DejaVuSans-72" x="498.865234"/>
       <use xlink:href="#DejaVuSans-76" x="539.978516"/>
       <use xlink:href="#DejaVuSans-65" x="599.158203"/>
       <use xlink:href="#DejaVuSans-72" x="660.681641"/>
      </g>
     </g>
    </g>
    <g id="xtick_7">
     <g id="line2d_7">
      <path d="M 365.0805 596.97 
L 365.0805 161.442 
" clip-path="url(#p5e6ef9a93f)" style="fill: none; stroke: #cccccc; stroke-linecap: round"/>
     </g>
     <g id="text_7">
      <!-- broadwell -->
      <g style="fill: #262626" transform="translate(368.115812 660.058906) rotate(-90) scale(0.11 -0.11)">
       <defs>
        <path id="DejaVuSans-6f" d="M 1959 3097 
Q 1497 3097 1228 2736 
Q 959 2375 959 1747 
Q 959 1119 1226 758 
Q 1494 397 1959 397 
Q 2419 397 2687 759 
Q 2956 1122 2956 1747 
Q 2956 2369 2687 2733 
Q 2419 3097 1959 3097 
z
M 1959 3584 
Q 2709 3584 3137 3096 
Q 3566 2609 3566 1747 
Q 3566 888 3137 398 
Q 2709 -91 1959 -91 
Q 1206 -91 779 398 
Q 353 888 353 1747 
Q 353 2609 779 3096 
Q 1206 3584 1959 3584 
z
" transform="scale(0.015625)"/>
        <path id="DejaVuSans-77" d="M 269 3500 
L 844 3500 
L 1563 769 
L 2278 3500 
L 2956 3500 
L 3675 769 
L 4391 3500 
L 4966 3500 
L 4050 0 
L 3372 0 
L 2619 2869 
L 1863 0 
L 1184 0 
L 269 3500 
z
" transform="scale(0.015625)"/>
       </defs>
       <use xlink:href="#DejaVuSans-62"/>
       <use xlink:href="#DejaVuSans-72" x="63.476562"/>
       <use xlink:href="#DejaVuSans-6f" x="102.339844"/>
       <use xlink:href="#DejaVuSans-61" x="163.521484"/>
       <use xlink:href="#DejaVuSans-64" x="224.800781"/>
       <use xlink:href="#DejaVuSans-77" x="288.277344"/>
       <use xlink:href="#DejaVuSans-65" x="370.064453"/>
       <use xlink:href="#DejaVuSans-6c" x="431.587891"/>
       <use xlink:href="#DejaVuSans-6c" x="459.371094"/>
      </g>
     </g>
    </g>
    <g id="xtick_8">
     <g id="line2d_8">
      <path d="M 397.3815 596.97 
L 397.3815 161.442 
" clip-path="url(#p5e6ef9a93f)" style="fill: none; stroke: #cccccc; stroke-linecap: round"/>
     </g>
     <g id="text_8">
      <!-- btver2 -->
      <g style="fill: #262626" transform="translate(400.416812 642.565469) rotate(-90) scale(0.11 -0.11)">
       <defs>
        <path id="DejaVuSans-74" d="M 1172 4494 
L 1172 3500 
L 2356 3500 
L 2356 3053 
L 1172 3053 
L 1172 1153 
Q 1172 725 1289 603 
Q 1406 481 1766 481 
L 2356 481 
L 2356 0 
L 1766 0 
Q 1100 0 847 248 
Q 594 497 594 1153 
L 594 3053 
L 172 3053 
L 172 3500 
L 594 3500 
L 594 4494 
L 1172 4494 
z
" transform="scale(0.015625)"/>
       </defs>
       <use xlink:href="#DejaVuSans-62"/>
       <use xlink:href="#DejaVuSans-74" x="63.476562"/>
       <use xlink:href="#DejaVuSans-76" x="102.685547"/>
       <use xlink:href="#DejaVuSans-65" x="161.865234"/>
       <use xlink:href="#DejaVuSans-72" x="223.388672"/>
       <use xlink:href="#DejaVuSans-32" x="264.501953"/>
      </g>
     </g>
    </g>
    <g id="xtick_9">
     <g id="line2d_9">
      <path d="M 429.6825 596.97 
L 429.6825 161.442 
" clip-path="url(#p5e6ef9a93f)" style="fill: none; stroke: #cccccc; stroke-linecap: round"/>
     </g>
     <g id="text_9">
      <!-- znver3 -->
      <g style="fill: #262626" transform="translate(432.717812 644.014375) rotate(-90) scale(0.11 -0.11)">
       <defs>
        <path id="DejaVuSans-7a" d="M 353 3500 
L 3084 3500 
L 3084 2975 
L 922 459 
L 3084 459 
L 3084 0 
L 275 0 
L 275 525 
L 2438 3041 
L 353 3041 
L 353 3500 
z
" transform="scale(0.015625)"/>
        <path id="DejaVuSans-33" d="M 2597 2516 
Q 3050 2419 3304 2112 
Q 3559 1806 3559 1356 
Q 3559 666 3084 287 
Q 2609 -91 1734 -91 
Q 1441 -91 1130 -33 
Q 819 25 488 141 
L 488 750 
Q 750 597 1062 519 
Q 1375 441 1716 441 
Q 2309 441 2620 675 
Q 2931 909 2931 1356 
Q 2931 1769 2642 2001 
Q 2353 2234 1838 2234 
L 1294 2234 
L 1294 2753 
L 1863 2753 
Q 2328 2753 2575 2939 
Q 2822 3125 2822 3475 
Q 2822 3834 2567 4026 
Q 2313 4219 1838 4219 
Q 1578 4219 1281 4162 
Q 984 4106 628 3988 
L 628 4550 
Q 988 4650 1302 4700 
Q 1616 4750 1894 4750 
Q 2613 4750 3031 4423 
Q 3450 4097 3450 3541 
Q 3450 3153 3228 2886 
Q 3006 2619 2597 2516 
z
" transform="scale(0.015625)"/>
       </defs>
       <use xlink:href="#DejaVuSans-7a"/>
       <use xlink:href="#DejaVuSans-6e" x="52.490234"/>
       <use xlink:href="#DejaVuSans-76" x="115.869141"/>
       <use xlink:href="#DejaVuSans-65" x="175.048828"/>
       <use xlink:href="#DejaVuSans-72" x="236.572266"/>
       <use xlink:href="#DejaVuSans-33" x="277.685547"/>
      </g>
     </g>
    </g>
    <g id="xtick_10">
     <g id="line2d_10">
      <path d="M 461.9835 596.97 
L 461.9835 161.442 
" clip-path="url(#p5e6ef9a93f)" style="fill: none; stroke: #cccccc; stroke-linecap: round"/>
     </g>
     <g id="text_10">
      <!-- znver2 -->
      <g style="fill: #262626" transform="translate(465.018812 644.014375) rotate(-90) scale(0.11 -0.11)">
       <use xlink:href="#DejaVuSans-7a"/>
       <use xlink:href="#DejaVuSans-6e" x="52.490234"/>
       <use xlink:href="#DejaVuSans-76" x="115.869141"/>
       <use xlink:href="#DejaVuSans-65" x="175.048828"/>
       <use xlink:href="#DejaVuSans-72" x="236.572266"/>
       <use xlink:href="#DejaVuSans-32" x="277.685547"/>
      </g>
     </g>
    </g>
    <g id="xtick_11">
     <g id="line2d_11">
      <path d="M 494.2845 596.97 
L 494.2845 161.442 
" clip-path="url(#p5e6ef9a93f)" style="fill: none; stroke: #cccccc; stroke-linecap: round"/>
     </g>
     <g id="text_11">
      <!-- znver1 -->
      <g style="fill: #262626" transform="translate(497.319812 644.014375) rotate(-90) scale(0.11 -0.11)">
       <use xlink:href="#DejaVuSans-7a"/>
       <use xlink:href="#DejaVuSans-6e" x="52.490234"/>
       <use xlink:href="#DejaVuSans-76" x="115.869141"/>
       <use xlink:href="#DejaVuSans-65" x="175.048828"/>
       <use xlink:href="#DejaVuSans-72" x="236.572266"/>
       <use xlink:href="#DejaVuSans-31" x="277.685547"/>
      </g>
     </g>
    </g>
    <g id="xtick_12">
     <g id="line2d_12">
      <path d="M 526.5855 596.97 
L 526.5855 161.442 
" clip-path="url(#p5e6ef9a93f)" style="fill: none; stroke: #cccccc; stroke-linecap: round"/>
     </g>
     <g id="text_12">
      <!-- haswell -->
      <g style="fill: #262626" transform="translate(529.620812 647.78875) rotate(-90) scale(0.11 -0.11)">
       <use xlink:href="#DejaVuSans-68"/>
       <use xlink:href="#DejaVuSans-61" x="63.378906"/>
       <use xlink:href="#DejaVuSans-73" x="124.658203"/>
       <use xlink:href="#DejaVuSans-77" x="176.757812"/>
       <use xlink:href="#DejaVuSans-65" x="258.544922"/>
       <use xlink:href="#DejaVuSans-6c" x="320.068359"/>
       <use xlink:href="#DejaVuSans-6c" x="347.851562"/>
      </g>
     </g>
    </g>
    <g id="xtick_13">
     <g id="line2d_13">
      <path d="M 558.8865 596.97 
L 558.8865 161.442 
" clip-path="url(#p5e6ef9a93f)" style="fill: none; stroke: #cccccc; stroke-linecap: round"/>
     </g>
     <g id="text_13">
      <!-- x86-64-v4 -->
      <g style="fill: #262626" transform="translate(561.921813 662.133438) rotate(-90) scale(0.11 -0.11)">
       <defs>
        <path id="DejaVuSans-38" d="M 2034 2216 
Q 1584 2216 1326 1975 
Q 1069 1734 1069 1313 
Q 1069 891 1326 650 
Q 1584 409 2034 409 
Q 2484 409 2743 651 
Q 3003 894 3003 1313 
Q 3003 1734 2745 1975 
Q 2488 2216 2034 2216 
z
M 1403 2484 
Q 997 2584 770 2862 
Q 544 3141 544 3541 
Q 544 4100 942 4425 
Q 1341 4750 2034 4750 
Q 2731 4750 3128 4425 
Q 3525 4100 3525 3541 
Q 3525 3141 3298 2862 
Q 3072 2584 2669 2484 
Q 3125 2378 3379 2068 
Q 3634 1759 3634 1313 
Q 3634 634 3220 271 
Q 2806 -91 2034 -91 
Q 1263 -91 848 271 
Q 434 634 434 1313 
Q 434 1759 690 2068 
Q 947 2378 1403 2484 
z
M 1172 3481 
Q 1172 3119 1398 2916 
Q 1625 2713 2034 2713 
Q 2441 2713 2670 2916 
Q 2900 3119 2900 3481 
Q 2900 3844 2670 4047 
Q 2441 4250 2034 4250 
Q 1625 4250 1398 4047 
Q 1172 3844 1172 3481 
z
" transform="scale(0.015625)"/>
        <path id="DejaVuSans-36" d="M 2113 2584 
Q 1688 2584 1439 2293 
Q 1191 2003 1191 1497 
Q 1191 994 1439 701 
Q 1688 409 2113 409 
Q 2538 409 2786 701 
Q 3034 994 3034 1497 
Q 3034 2003 2786 2293 
Q 2538 2584 2113 2584 
z
M 3366 4563 
L 3366 3988 
Q 3128 4100 2886 4159 
Q 2644 4219 2406 4219 
Q 1781 4219 1451 3797 
Q 1122 3375 1075 2522 
Q 1259 2794 1537 2939 
Q 1816 3084 2150 3084 
Q 2853 3084 3261 2657 
Q 3669 2231 3669 1497 
Q 3669 778 3244 343 
Q 2819 -91 2113 -91 
Q 1303 -91 875 529 
Q 447 1150 447 2328 
Q 447 3434 972 4092 
Q 1497 4750 2381 4750 
Q 2619 4750 2861 4703 
Q 3103 4656 3366 4563 
z
" transform="scale(0.015625)"/>
        <path id="DejaVuSans-34" d="M 2419 4116 
L 825 1625 
L 2419 1625 
L 2419 4116 
z
M 2253 4666 
L 3047 4666 
L 3047 1625 
L 3713 1625 
L 3713 1100 
L 3047 1100 
L 3047 0 
L 2419 0 
L 2419 1100 
L 313 1100 
L 313 1709 
L 2253 4666 
z
" transform="scale(0.015625)"/>
       </defs>
       <use xlink:href="#DejaVuSans-78"/>
       <use xlink:href="#DejaVuSans-38" x="59.179688"/>
       <use xlink:href="#DejaVuSans-36" x="122.802734"/>
       <use xlink:href="#DejaVuSans-2d" x="186.425781"/>
       <use xlink:href="#DejaVuSans-36" x="222.509766"/>
       <use xlink:href="#DejaVuSans-34" x="286.132812"/>
       <use xlink:href="#DejaVuSans-2d" x="349.755859"/>
       <use xlink:href="#DejaVuSans-76" x="383.214844"/>
       <use xlink:href="#DejaVuSans-34" x="442.394531"/>
      </g>
     </g>
    </g>
    <g id="xtick_14">
     <g id="line2d_14">
      <path d="M 591.1875 596.97 
L 591.1875 161.442 
" clip-path="url(#p5e6ef9a93f)" style="fill: none; stroke: #cccccc; stroke-linecap: round"/>
     </g>
     <g id="text_14">
      <!-- bdver4 -->
      <g style="fill: #262626" transform="translate(594.222813 645.236406) rotate(-90) scale(0.11 -0.11)">
       <use xlink:href="#DejaVuSans-62"/>
       <use xlink:href="#DejaVuSans-64" x="63.476562"/>
       <use xlink:href="#DejaVuSans-76" x="126.953125"/>
       <use xlink:href="#DejaVuSans-65" x="186.132812"/>
       <use xlink:href="#DejaVuSans-72" x="247.65625"/>
       <use xlink:href="#DejaVuSans-34" x="288.769531"/>
      </g>
     </g>
    </g>
    <g id="xtick_15">
     <g id="line2d_15">
      <path d="M 623.4885 596.97 
L 623.4885 161.442 
" clip-path="url(#p5e6ef9a93f)" style="fill: none; stroke: #cccccc; stroke-linecap: round"/>
     </g>
     <g id="text_15">
      <!-- x86-64-v3 -->
      <g style="fill: #262626" transform="translate(626.523812 662.133438) rotate(-90) scale(0.11 -0.11)">
       <use xlink:href="#DejaVuSans-78"/>
       <use xlink:href="#DejaVuSans-38" x="59.179688"/>
       <use xlink:href="#DejaVuSans-36" x="122.802734"/>
       <use xlink:href="#DejaVuSans-2d" x="186.425781"/>
       <use xlink:href="#DejaVuSans-36" x="222.509766"/>
       <use xlink:href="#DejaVuSans-34" x="286.132812"/>
       <use xlink:href="#DejaVuSans-2d" x="349.755859"/>
       <use xlink:href="#DejaVuSans-76" x="383.214844"/>
       <use xlink:href="#DejaVuSans-33" x="442.394531"/>
      </g>
     </g>
    </g>
    <g id="xtick_16">
     <g id="line2d_16">
      <path d="M 655.7895 596.97 
L 655.7895 161.442 
" clip-path="url(#p5e6ef9a93f)" style="fill: none; stroke: #cccccc; stroke-linecap: round"/>
     </g>
     <g id="text_16">
      <!-- znver4 -->
      <g style="fill: #262626" transform="translate(658.824813 644.014375) rotate(-90) scale(0.11 -0.11)">
       <use xlink:href="#DejaVuSans-7a"/>
       <use xlink:href="#DejaVuSans-6e" x="52.490234"/>
       <use xlink:href="#DejaVuSans-76" x="115.869141"/>
       <use xlink:href="#DejaVuSans-65" x="175.048828"/>
       <use xlink:href="#DejaVuSans-72" x="236.572266"/>
       <use xlink:href="#DejaVuSans-34" x="277.685547"/>
      </g>
     </g>
    </g>
    <g id="text_17">
     <!-- Micro-architecture -->
     <g style="fill: #262626" transform="translate(358.811062 705.063281) scale(0.12 -0.12)">
      <defs>
       <path id="DejaVuSans-4d" d="M 628 4666 
L 1569 4666 
L 2759 1491 
L 3956 4666 
L 4897 4666 
L 4897 0 
L 4281 0 
L 4281 4097 
L 3078 897 
L 2444 897 
L 1241 4097 
L 1241 0 
L 628 0 
L 628 4666 
z
" transform="scale(0.015625)"/>
       <path id="DejaVuSans-75" d="M 544 1381 
L 544 3500 
L 1119 3500 
L 1119 1403 
Q 1119 906 1312 657 
Q 1506 409 1894 409 
Q 2359 409 2629 706 
Q 2900 1003 2900 1516 
L 2900 3500 
L 3475 3500 
L 3475 0 
L 2900 0 
L 2900 538 
Q 2691 219 2414 64 
Q 2138 -91 1772 -91 
Q 1169 -91 856 284 
Q 544 659 544 1381 
z
M 1991 3584 
L 1991 3584 
z
" transform="scale(0.015625)"/>
      </defs>
      <use xlink:href="#DejaVuSans-4d"/>
      <use xlink:href="#DejaVuSans-69" x="86.279297"/>
      <use xlink:href="#DejaVuSans-63" x="114.0625"/>
      <use xlink:href="#DejaVuSans-72" x="169.042969"/>
      <use xlink:href="#DejaVuSans-6f" x="207.90625"/>
      <use xlink:href="#DejaVuSans-2d" x="270.962891"/>
      <use xlink:href="#DejaVuSans-61" x="307.046875"/>
      <use xlink:href="#DejaVuSans-72" x="368.326172"/>
      <use xlink:href="#DejaVuSans-63" x="407.189453"/>
      <use xlink:href="#DejaVuSans-68" x="462.169922"/>
      <use xlink:href="#DejaVuSans-69" x="525.548828"/>
      <use xlink:href="#DejaVuSans-74" x="553.332031"/>
      <use xlink:href="#DejaVuSans-65" x="592.541016"/>
      <use xlink:href="#DejaVuSans-63" x="654.064453"/>
      <use xlink:href="#DejaVuSans-74" x="709.044922"/>
      <use xlink:href="#DejaVuSans-75" x="748.253906"/>
      <use xlink:href="#DejaVuSans-72" x="811.632812"/>
      <use xlink:href="#DejaVuSans-65" x="850.496094"/>
     </g>
    </g>
   </g>
   <g id="matplotlib.axis_2">
    <g id="ytick_1">
     <g id="line2d_17">
      <path d="M 155.124 192.551143 
L 671.94 192.551143 
" clip-path="url(#p5e6ef9a93f)" style="fill: none; stroke: #cccccc; stroke-linecap: round"/>
     </g>
     <g id="line2d_18">
      <defs>
       <path id="m06f137d6ca" d="M 0 0 
L 6 0 
" style="stroke: #262626; stroke-width: 1.25"/>
      </defs>
      <g>
       <use xlink:href="#m06f137d6ca" x="671.94" y="192.551143" style="fill: #262626; stroke: #262626; stroke-width: 1.25"/>
      </g>
     </g>
     <g id="text_18">
      <!-- O0 -->
      <g style="fill: #262626" transform="translate(689.798281 204.029815) rotate(-90) scale(0.11 -0.11)">
       <defs>
        <path id="DejaVuSans-4f" d="M 2522 4238 
Q 1834 4238 1429 3725 
Q 1025 3213 1025 2328 
Q 1025 1447 1429 934 
Q 1834 422 2522 422 
Q 3209 422 3611 934 
Q 4013 1447 4013 2328 
Q 4013 3213 3611 3725 
Q 3209 4238 2522 4238 
z
M 2522 4750 
Q 3503 4750 4090 4092 
Q 4678 3434 4678 2328 
Q 4678 1225 4090 567 
Q 3503 -91 2522 -91 
Q 1538 -91 948 565 
Q 359 1222 359 2328 
Q 359 3434 948 4092 
Q 1538 4750 2522 4750 
z
" transform="scale(0.015625)"/>
        <path id="DejaVuSans-30" d="M 2034 4250 
Q 1547 4250 1301 3770 
Q 1056 3291 1056 2328 
Q 1056 1369 1301 889 
Q 1547 409 2034 409 
Q 2525 409 2770 889 
Q 3016 1369 3016 2328 
Q 3016 3291 2770 3770 
Q 2525 4250 2034 4250 
z
M 2034 4750 
Q 2819 4750 3233 4129 
Q 3647 3509 3647 2328 
Q 3647 1150 3233 529 
Q 2819 -91 2034 -91 
Q 1250 -91 836 529 
Q 422 1150 422 2328 
Q 422 3509 836 4129 
Q 1250 4750 2034 4750 
z
" transform="scale(0.015625)"/>
       </defs>
       <use xlink:href="#DejaVuSans-4f"/>
       <use xlink:href="#DejaVuSans-30" x="78.710938"/>
      </g>
     </g>
    </g>
    <g id="ytick_2">
     <g id="line2d_19">
      <path d="M 155.124 254.769429 
L 671.94 254.769429 
" clip-path="url(#p5e6ef9a93f)" style="fill: none; stroke: #cccccc; stroke-linecap: round"/>
     </g>
     <g id="line2d_20">
      <g>
       <use xlink:href="#m06f137d6ca" x="671.94" y="254.769429" style="fill: #262626; stroke: #262626; stroke-width: 1.25"/>
      </g>
     </g>
     <g id="text_19">
      <!-- Og -->
      <g style="fill: #262626" transform="translate(689.798281 266.232632) rotate(-90) scale(0.11 -0.11)">
       <use xlink:href="#DejaVuSans-4f"/>
       <use xlink:href="#DejaVuSans-67" x="78.710938"/>
      </g>
     </g>
    </g>
    <g id="ytick_3">
     <g id="line2d_21">
      <path d="M 155.124 316.987714 
L 671.94 316.987714 
" clip-path="url(#p5e6ef9a93f)" style="fill: none; stroke: #cccccc; stroke-linecap: round"/>
     </g>
     <g id="line2d_22">
      <g>
       <use xlink:href="#m06f137d6ca" x="671.94" y="316.987714" style="fill: #262626; stroke: #262626; stroke-width: 1.25"/>
      </g>
     </g>
     <g id="text_20">
      <!-- Os -->
      <g style="fill: #262626" transform="translate(689.798281 327.197949) rotate(-90) scale(0.11 -0.11)">
       <use xlink:href="#DejaVuSans-4f"/>
       <use xlink:href="#DejaVuSans-73" x="78.710938"/>
      </g>
     </g>
    </g>
    <g id="ytick_4">
     <g id="line2d_23">
      <path d="M 155.124 379.206 
L 671.94 379.206 
" clip-path="url(#p5e6ef9a93f)" style="fill: none; stroke: #cccccc; stroke-linecap: round"/>
     </g>
     <g id="line2d_24">
      <g>
       <use xlink:href="#m06f137d6ca" x="671.94" y="379.206" style="fill: #262626; stroke: #262626; stroke-width: 1.25"/>
      </g>
     </g>
     <g id="text_21">
      <!-- O1 -->
      <g style="fill: #262626" transform="translate(689.798281 390.684672) rotate(-90) scale(0.11 -0.11)">
       <use xlink:href="#DejaVuSans-4f"/>
       <use xlink:href="#DejaVuSans-31" x="78.710938"/>
      </g>
     </g>
    </g>
    <g id="ytick_5">
     <g id="line2d_25">
      <path d="M 155.124 441.424286 
L 671.94 441.424286 
" clip-path="url(#p5e6ef9a93f)" style="fill: none; stroke: #cccccc; stroke-linecap: round"/>
     </g>
     <g id="line2d_26">
      <g>
       <use xlink:href="#m06f137d6ca" x="671.94" y="441.424286" style="fill: #262626; stroke: #262626; stroke-width: 1.25"/>
      </g>
     </g>
     <g id="text_22">
      <!-- Ofast -->
      <g style="fill: #262626" transform="translate(689.798281 466.560145) rotate(-90) scale(0.11 -0.11)">
       <defs>
        <path id="DejaVuSans-66" d="M 2375 4863 
L 2375 4384 
L 1825 4384 
Q 1516 4384 1395 4259 
Q 1275 4134 1275 3809 
L 1275 3500 
L 2222 3500 
L 2222 3053 
L 1275 3053 
L 1275 0 
L 697 0 
L 697 3053 
L 147 3053 
L 147 3500 
L 697 3500 
L 697 3744 
Q 697 4328 969 4595 
Q 1241 4863 1831 4863 
L 2375 4863 
z
" transform="scale(0.015625)"/>
       </defs>
       <use xlink:href="#DejaVuSans-4f"/>
       <use xlink:href="#DejaVuSans-66" x="78.710938"/>
       <use xlink:href="#DejaVuSans-61" x="113.916016"/>
       <use xlink:href="#DejaVuSans-73" x="175.195312"/>
       <use xlink:href="#DejaVuSans-74" x="227.294922"/>
      </g>
     </g>
    </g>
    <g id="ytick_6">
     <g id="line2d_27">
      <path d="M 155.124 503.642571 
L 671.94 503.642571 
" clip-path="url(#p5e6ef9a93f)" style="fill: none; stroke: #cccccc; stroke-linecap: round"/>
     </g>
     <g id="line2d_28">
      <g>
       <use xlink:href="#m06f137d6ca" x="671.94" y="503.642571" style="fill: #262626; stroke: #262626; stroke-width: 1.25"/>
      </g>
     </g>
     <g id="text_23">
      <!-- O2 -->
      <g style="fill: #262626" transform="translate(689.798281 515.121243) rotate(-90) scale(0.11 -0.11)">
       <use xlink:href="#DejaVuSans-4f"/>
       <use xlink:href="#DejaVuSans-32" x="78.710938"/>
      </g>
     </g>
    </g>
    <g id="ytick_7">
     <g id="line2d_29">
      <path d="M 155.124 565.860857 
L 671.94 565.860857 
" clip-path="url(#p5e6ef9a93f)" style="fill: none; stroke: #cccccc; stroke-linecap: round"/>
     </g>
     <g id="line2d_30">
      <g>
       <use xlink:href="#m06f137d6ca" x="671.94" y="565.860857" style="fill: #262626; stroke: #262626; stroke-width: 1.25"/>
      </g>
     </g>
     <g id="text_24">
      <!-- O3 -->
      <g style="fill: #262626" transform="translate(689.798281 577.339529) rotate(-90) scale(0.11 -0.11)">
       <use xlink:href="#DejaVuSans-4f"/>
       <use xlink:href="#DejaVuSans-33" x="78.710938"/>
      </g>
     </g>
    </g>
    <g id="text_25">
     <!-- Optimization -->
     <g style="fill: #262626" transform="translate(705.204062 417.58725) rotate(-90) scale(0.12 -0.12)">
      <defs>
       <path id="DejaVuSans-6d" d="M 3328 2828 
Q 3544 3216 3844 3400 
Q 4144 3584 4550 3584 
Q 5097 3584 5394 3201 
Q 5691 2819 5691 2113 
L 5691 0 
L 5113 0 
L 5113 2094 
Q 5113 2597 4934 2840 
Q 4756 3084 4391 3084 
Q 3944 3084 3684 2787 
Q 3425 2491 3425 1978 
L 3425 0 
L 2847 0 
L 2847 2094 
Q 2847 2600 2669 2842 
Q 2491 3084 2119 3084 
Q 1678 3084 1418 2786 
Q 1159 2488 1159 1978 
L 1159 0 
L 581 0 
L 581 3500 
L 1159 3500 
L 1159 2956 
Q 1356 3278 1631 3431 
Q 1906 3584 2284 3584 
Q 2666 3584 2933 3390 
Q 3200 3197 3328 2828 
z
" transform="scale(0.015625)"/>
      </defs>
      <use xlink:href="#DejaVuSans-4f"/>
      <use xlink:href="#DejaVuSans-70" x="78.710938"/>
      <use xlink:href="#DejaVuSans-74" x="142.1875"/>
      <use xlink:href="#DejaVuSans-69" x="181.396484"/>
      <use xlink:href="#DejaVuSans-6d" x="209.179688"/>
      <use xlink:href="#DejaVuSans-69" x="306.591797"/>
      <use xlink:href="#DejaVuSans-7a" x="334.375"/>
      <use xlink:href="#DejaVuSans-61" x="386.865234"/>
      <use xlink:href="#DejaVuSans-74" x="448.144531"/>
      <use xlink:href="#DejaVuSans-69" x="487.353516"/>
      <use xlink:href="#DejaVuSans-6f" x="515.136719"/>
      <use xlink:href="#DejaVuSans-6e" x="576.318359"/>
     </g>
    </g>
   </g>
   <g id="QuadMesh_1">
    <path d="M 155.124 161.442 
L 187.425 161.442 
L 187.425 223.660286 
L 155.124 223.660286 
L 155.124 161.442 
" clip-path="url(#p5e6ef9a93f)" style="fill: #08306b"/>
    <path d="M 187.425 161.442 
L 219.726 161.442 
L 219.726 223.660286 
L 187.425 223.660286 
L 187.425 161.442 
" clip-path="url(#p5e6ef9a93f)" style="fill: #08306b"/>
    <path d="M 219.726 161.442 
L 252.027 161.442 
L 252.027 223.660286 
L 219.726 223.660286 
L 219.726 161.442 
" clip-path="url(#p5e6ef9a93f)" style="fill: #08306b"/>
    <path d="M 252.027 161.442 
L 284.328 161.442 
L 284.328 223.660286 
L 252.027 223.660286 
L 252.027 161.442 
" clip-path="url(#p5e6ef9a93f)" style="fill: #08306b"/>
    <path d="M 284.328 161.442 
L 316.629 161.442 
L 316.629 223.660286 
L 284.328 223.660286 
L 284.328 161.442 
" clip-path="url(#p5e6ef9a93f)" style="fill: #08306b"/>
    <path d="M 316.629 161.442 
L 348.93 161.442 
L 348.93 223.660286 
L 316.629 223.660286 
L 316.629 161.442 
" clip-path="url(#p5e6ef9a93f)" style="fill: #08306b"/>
    <path d="M 348.93 161.442 
L 381.231 161.442 
L 381.231 223.660286 
L 348.93 223.660286 
L 348.93 161.442 
" clip-path="url(#p5e6ef9a93f)" style="fill: #08306b"/>
    <path d="M 381.231 161.442 
L 413.532 161.442 
L 413.532 223.660286 
L 381.231 223.660286 
L 381.231 161.442 
" clip-path="url(#p5e6ef9a93f)" style="fill: #08306b"/>
    <path d="M 413.532 161.442 
L 445.833 161.442 
L 445.833 223.660286 
L 413.532 223.660286 
L 413.532 161.442 
" clip-path="url(#p5e6ef9a93f)" style="fill: #f7fbff"/>
    <path d="M 445.833 161.442 
L 478.134 161.442 
L 478.134 223.660286 
L 445.833 223.660286 
L 445.833 161.442 
" clip-path="url(#p5e6ef9a93f)" style="fill: #f7fbff"/>
    <path d="M 478.134 161.442 
L 510.435 161.442 
L 510.435 223.660286 
L 478.134 223.660286 
L 478.134 161.442 
" clip-path="url(#p5e6ef9a93f)" style="fill: #f7fbff"/>
    <path d="M 510.435 161.442 
L 542.736 161.442 
L 542.736 223.660286 
L 510.435 223.660286 
L 510.435 161.442 
" clip-path="url(#p5e6ef9a93f)" style="fill: #f7fbff"/>
    <path d="M 542.736 161.442 
L 575.037 161.442 
L 575.037 223.660286 
L 542.736 223.660286 
L 542.736 161.442 
" clip-path="url(#p5e6ef9a93f)" style="fill: #f7fbff"/>
    <path d="M 575.037 161.442 
L 607.338 161.442 
L 607.338 223.660286 
L 575.037 223.660286 
L 575.037 161.442 
" clip-path="url(#p5e6ef9a93f)" style="fill: #08306b"/>
    <path d="M 607.338 161.442 
L 639.639 161.442 
L 639.639 223.660286 
L 607.338 223.660286 
L 607.338 161.442 
" clip-path="url(#p5e6ef9a93f)" style="fill: #f7fbff"/>
    <path d="M 639.639 161.442 
L 671.94 161.442 
L 671.94 223.660286 
L 639.639 223.660286 
L 639.639 161.442 
" clip-path="url(#p5e6ef9a93f)" style="fill: #f7fbff"/>
    <path d="M 155.124 223.660286 
L 187.425 223.660286 
L 187.425 285.878571 
L 155.124 285.878571 
L 155.124 223.660286 
" clip-path="url(#p5e6ef9a93f)" style="fill: #08306b"/>
    <path d="M 187.425 223.660286 
L 219.726 223.660286 
L 219.726 285.878571 
L 187.425 285.878571 
L 187.425 223.660286 
" clip-path="url(#p5e6ef9a93f)" style="fill: #08306b"/>
    <path d="M 219.726 223.660286 
L 252.027 223.660286 
L 252.027 285.878571 
L 219.726 285.878571 
L 219.726 223.660286 
" clip-path="url(#p5e6ef9a93f)" style="fill: #08306b"/>
    <path d="M 252.027 223.660286 
L 284.328 223.660286 
L 284.328 285.878571 
L 252.027 285.878571 
L 252.027 223.660286 
" clip-path="url(#p5e6ef9a93f)" style="fill: #08306b"/>
    <path d="M 284.328 223.660286 
L 316.629 223.660286 
L 316.629 285.878571 
L 284.328 285.878571 
L 284.328 223.660286 
" clip-path="url(#p5e6ef9a93f)" style="fill: #08306b"/>
    <path d="M 316.629 223.660286 
L 348.93 223.660286 
L 348.93 285.878571 
L 316.629 285.878571 
L 316.629 223.660286 
" clip-path="url(#p5e6ef9a93f)" style="fill: #08306b"/>
    <path d="M 348.93 223.660286 
L 381.231 223.660286 
L 381.231 285.878571 
L 348.93 285.878571 
L 348.93 223.660286 
" clip-path="url(#p5e6ef9a93f)" style="fill: #08306b"/>
    <path d="M 381.231 223.660286 
L 413.532 223.660286 
L 413.532 285.878571 
L 381.231 285.878571 
L 381.231 223.660286 
" clip-path="url(#p5e6ef9a93f)" style="fill: #08306b"/>
    <path d="M 413.532 223.660286 
L 445.833 223.660286 
L 445.833 285.878571 
L 413.532 285.878571 
L 413.532 223.660286 
" clip-path="url(#p5e6ef9a93f)" style="fill: #08306b"/>
    <path d="M 445.833 223.660286 
L 478.134 223.660286 
L 478.134 285.878571 
L 445.833 285.878571 
L 445.833 223.660286 
" clip-path="url(#p5e6ef9a93f)" style="fill: #08306b"/>
    <path d="M 478.134 223.660286 
L 510.435 223.660286 
L 510.435 285.878571 
L 478.134 285.878571 
L 478.134 223.660286 
" clip-path="url(#p5e6ef9a93f)" style="fill: #08306b"/>
    <path d="M 510.435 223.660286 
L 542.736 223.660286 
L 542.736 285.878571 
L 510.435 285.878571 
L 510.435 223.660286 
" clip-path="url(#p5e6ef9a93f)" style="fill: #08306b"/>
    <path d="M 542.736 223.660286 
L 575.037 223.660286 
L 575.037 285.878571 
L 542.736 285.878571 
L 542.736 223.660286 
" clip-path="url(#p5e6ef9a93f)" style="fill: #08306b"/>
    <path d="M 575.037 223.660286 
L 607.338 223.660286 
L 607.338 285.878571 
L 575.037 285.878571 
L 575.037 223.660286 
" clip-path="url(#p5e6ef9a93f)" style="fill: #08306b"/>
    <path d="M 607.338 223.660286 
L 639.639 223.660286 
L 639.639 285.878571 
L 607.338 285.878571 
L 607.338 223.660286 
" clip-path="url(#p5e6ef9a93f)" style="fill: #08306b"/>
    <path d="M 639.639 223.660286 
L 671.94 223.660286 
L 671.94 285.878571 
L 639.639 285.878571 
L 639.639 223.660286 
" clip-path="url(#p5e6ef9a93f)" style="fill: #08306b"/>
    <path d="M 155.124 285.878571 
L 187.425 285.878571 
L 187.425 348.096857 
L 155.124 348.096857 
L 155.124 285.878571 
" clip-path="url(#p5e6ef9a93f)" style="fill: #08306b"/>
    <path d="M 187.425 285.878571 
L 219.726 285.878571 
L 219.726 348.096857 
L 187.425 348.096857 
L 187.425 285.878571 
" clip-path="url(#p5e6ef9a93f)" style="fill: #08306b"/>
    <path d="M 219.726 285.878571 
L 252.027 285.878571 
L 252.027 348.096857 
L 219.726 348.096857 
L 219.726 285.878571 
" clip-path="url(#p5e6ef9a93f)" style="fill: #08306b"/>
    <path d="M 252.027 285.878571 
L 284.328 285.878571 
L 284.328 348.096857 
L 252.027 348.096857 
L 252.027 285.878571 
" clip-path="url(#p5e6ef9a93f)" style="fill: #08306b"/>
    <path d="M 284.328 285.878571 
L 316.629 285.878571 
L 316.629 348.096857 
L 284.328 348.096857 
L 284.328 285.878571 
" clip-path="url(#p5e6ef9a93f)" style="fill: #08306b"/>
    <path d="M 316.629 285.878571 
L 348.93 285.878571 
L 348.93 348.096857 
L 316.629 348.096857 
L 316.629 285.878571 
" clip-path="url(#p5e6ef9a93f)" style="fill: #08306b"/>
    <path d="M 348.93 285.878571 
L 381.231 285.878571 
L 381.231 348.096857 
L 348.93 348.096857 
L 348.93 285.878571 
" clip-path="url(#p5e6ef9a93f)" style="fill: #08306b"/>
    <path d="M 381.231 285.878571 
L 413.532 285.878571 
L 413.532 348.096857 
L 381.231 348.096857 
L 381.231 285.878571 
" clip-path="url(#p5e6ef9a93f)" style="fill: #08306b"/>
    <path d="M 413.532 285.878571 
L 445.833 285.878571 
L 445.833 348.096857 
L 413.532 348.096857 
L 413.532 285.878571 
" clip-path="url(#p5e6ef9a93f)" style="fill: #08306b"/>
    <path d="M 445.833 285.878571 
L 478.134 285.878571 
L 478.134 348.096857 
L 445.833 348.096857 
L 445.833 285.878571 
" clip-path="url(#p5e6ef9a93f)" style="fill: #08306b"/>
    <path d="M 478.134 285.878571 
L 510.435 285.878571 
L 510.435 348.096857 
L 478.134 348.096857 
L 478.134 285.878571 
" clip-path="url(#p5e6ef9a93f)" style="fill: #08306b"/>
    <path d="M 510.435 285.878571 
L 542.736 285.878571 
L 542.736 348.096857 
L 510.435 348.096857 
L 510.435 285.878571 
" clip-path="url(#p5e6ef9a93f)" style="fill: #08306b"/>
    <path d="M 542.736 285.878571 
L 575.037 285.878571 
L 575.037 348.096857 
L 542.736 348.096857 
L 542.736 285.878571 
" clip-path="url(#p5e6ef9a93f)" style="fill: #08306b"/>
    <path d="M 575.037 285.878571 
L 607.338 285.878571 
L 607.338 348.096857 
L 575.037 348.096857 
L 575.037 285.878571 
" clip-path="url(#p5e6ef9a93f)" style="fill: #f7fbff"/>
    <path d="M 607.338 285.878571 
L 639.639 285.878571 
L 639.639 348.096857 
L 607.338 348.096857 
L 607.338 285.878571 
" clip-path="url(#p5e6ef9a93f)" style="fill: #08306b"/>
    <path d="M 639.639 285.878571 
L 671.94 285.878571 
L 671.94 348.096857 
L 639.639 348.096857 
L 639.639 285.878571 
" clip-path="url(#p5e6ef9a93f)" style="fill: #f7fbff"/>
    <path d="M 155.124 348.096857 
L 187.425 348.096857 
L 187.425 410.315143 
L 155.124 410.315143 
L 155.124 348.096857 
" clip-path="url(#p5e6ef9a93f)" style="fill: #08306b"/>
    <path d="M 187.425 348.096857 
L 219.726 348.096857 
L 219.726 410.315143 
L 187.425 410.315143 
L 187.425 348.096857 
" clip-path="url(#p5e6ef9a93f)" style="fill: #08306b"/>
    <path d="M 219.726 348.096857 
L 252.027 348.096857 
L 252.027 410.315143 
L 219.726 410.315143 
L 219.726 348.096857 
" clip-path="url(#p5e6ef9a93f)" style="fill: #08306b"/>
    <path d="M 252.027 348.096857 
L 284.328 348.096857 
L 284.328 410.315143 
L 252.027 410.315143 
L 252.027 348.096857 
" clip-path="url(#p5e6ef9a93f)" style="fill: #08306b"/>
    <path d="M 284.328 348.096857 
L 316.629 348.096857 
L 316.629 410.315143 
L 284.328 410.315143 
L 284.328 348.096857 
" clip-path="url(#p5e6ef9a93f)" style="fill: #08306b"/>
    <path d="M 316.629 348.096857 
L 348.93 348.096857 
L 348.93 410.315143 
L 316.629 410.315143 
L 316.629 348.096857 
" clip-path="url(#p5e6ef9a93f)" style="fill: #08306b"/>
    <path d="M 348.93 348.096857 
L 381.231 348.096857 
L 381.231 410.315143 
L 348.93 410.315143 
L 348.93 348.096857 
" clip-path="url(#p5e6ef9a93f)" style="fill: #08306b"/>
    <path d="M 381.231 348.096857 
L 413.532 348.096857 
L 413.532 410.315143 
L 381.231 410.315143 
L 381.231 348.096857 
" clip-path="url(#p5e6ef9a93f)" style="fill: #08306b"/>
    <path d="M 413.532 348.096857 
L 445.833 348.096857 
L 445.833 410.315143 
L 413.532 410.315143 
L 413.532 348.096857 
" clip-path="url(#p5e6ef9a93f)" style="fill: #08306b"/>
    <path d="M 445.833 348.096857 
L 478.134 348.096857 
L 478.134 410.315143 
L 445.833 410.315143 
L 445.833 348.096857 
" clip-path="url(#p5e6ef9a93f)" style="fill: #08306b"/>
    <path d="M 478.134 348.096857 
L 510.435 348.096857 
L 510.435 410.315143 
L 478.134 410.315143 
L 478.134 348.096857 
" clip-path="url(#p5e6ef9a93f)" style="fill: #08306b"/>
    <path d="M 510.435 348.096857 
L 542.736 348.096857 
L 542.736 410.315143 
L 510.435 410.315143 
L 510.435 348.096857 
" clip-path="url(#p5e6ef9a93f)" style="fill: #08306b"/>
    <path d="M 542.736 348.096857 
L 575.037 348.096857 
L 575.037 410.315143 
L 542.736 410.315143 
L 542.736 348.096857 
" clip-path="url(#p5e6ef9a93f)" style="fill: #08306b"/>
    <path d="M 575.037 348.096857 
L 607.338 348.096857 
L 607.338 410.315143 
L 575.037 410.315143 
L 575.037 348.096857 
" clip-path="url(#p5e6ef9a93f)" style="fill: #08306b"/>
    <path d="M 607.338 348.096857 
L 639.639 348.096857 
L 639.639 410.315143 
L 607.338 410.315143 
L 607.338 348.096857 
" clip-path="url(#p5e6ef9a93f)" style="fill: #f7fbff"/>
    <path d="M 639.639 348.096857 
L 671.94 348.096857 
L 671.94 410.315143 
L 639.639 410.315143 
L 639.639 348.096857 
" clip-path="url(#p5e6ef9a93f)" style="fill: #f7fbff"/>
    <path d="M 155.124 410.315143 
L 187.425 410.315143 
L 187.425 472.533429 
L 155.124 472.533429 
L 155.124 410.315143 
" clip-path="url(#p5e6ef9a93f)" style="fill: #08306b"/>
    <path d="M 187.425 410.315143 
L 219.726 410.315143 
L 219.726 472.533429 
L 187.425 472.533429 
L 187.425 410.315143 
" clip-path="url(#p5e6ef9a93f)" style="fill: #08306b"/>
    <path d="M 219.726 410.315143 
L 252.027 410.315143 
L 252.027 472.533429 
L 219.726 472.533429 
L 219.726 410.315143 
" clip-path="url(#p5e6ef9a93f)" style="fill: #08306b"/>
    <path d="M 252.027 410.315143 
L 284.328 410.315143 
L 284.328 472.533429 
L 252.027 472.533429 
L 252.027 410.315143 
" clip-path="url(#p5e6ef9a93f)" style="fill: #08306b"/>
    <path d="M 284.328 410.315143 
L 316.629 410.315143 
L 316.629 472.533429 
L 284.328 472.533429 
L 284.328 410.315143 
" clip-path="url(#p5e6ef9a93f)" style="fill: #08306b"/>
    <path d="M 316.629 410.315143 
L 348.93 410.315143 
L 348.93 472.533429 
L 316.629 472.533429 
L 316.629 410.315143 
" clip-path="url(#p5e6ef9a93f)" style="fill: #08306b"/>
    <path d="M 348.93 410.315143 
L 381.231 410.315143 
L 381.231 472.533429 
L 348.93 472.533429 
L 348.93 410.315143 
" clip-path="url(#p5e6ef9a93f)" style="fill: #08306b"/>
    <path d="M 381.231 410.315143 
L 413.532 410.315143 
L 413.532 472.533429 
L 381.231 472.533429 
L 381.231 410.315143 
" clip-path="url(#p5e6ef9a93f)" style="fill: #08306b"/>
    <path d="M 413.532 410.315143 
L 445.833 410.315143 
L 445.833 472.533429 
L 413.532 472.533429 
L 413.532 410.315143 
" clip-path="url(#p5e6ef9a93f)" style="fill: #08306b"/>
    <path d="M 445.833 410.315143 
L 478.134 410.315143 
L 478.134 472.533429 
L 445.833 472.533429 
L 445.833 410.315143 
" clip-path="url(#p5e6ef9a93f)" style="fill: #08306b"/>
    <path d="M 478.134 410.315143 
L 510.435 410.315143 
L 510.435 472.533429 
L 478.134 472.533429 
L 478.134 410.315143 
" clip-path="url(#p5e6ef9a93f)" style="fill: #08306b"/>
    <path d="M 510.435 410.315143 
L 542.736 410.315143 
L 542.736 472.533429 
L 510.435 472.533429 
L 510.435 410.315143 
" clip-path="url(#p5e6ef9a93f)" style="fill: #08306b"/>
    <path d="M 542.736 410.315143 
L 575.037 410.315143 
L 575.037 472.533429 
L 542.736 472.533429 
L 542.736 410.315143 
" clip-path="url(#p5e6ef9a93f)" style="fill: #08306b"/>
    <path d="M 575.037 410.315143 
L 607.338 410.315143 
L 607.338 472.533429 
L 575.037 472.533429 
L 575.037 410.315143 
" clip-path="url(#p5e6ef9a93f)" style="fill: #f7fbff"/>
    <path d="M 607.338 410.315143 
L 639.639 410.315143 
L 639.639 472.533429 
L 607.338 472.533429 
L 607.338 410.315143 
" clip-path="url(#p5e6ef9a93f)" style="fill: #f7fbff"/>
    <path d="M 639.639 410.315143 
L 671.94 410.315143 
L 671.94 472.533429 
L 639.639 472.533429 
L 639.639 410.315143 
" clip-path="url(#p5e6ef9a93f)" style="fill: #f7fbff"/>
    <path d="M 155.124 472.533429 
L 187.425 472.533429 
L 187.425 534.751714 
L 155.124 534.751714 
L 155.124 472.533429 
" clip-path="url(#p5e6ef9a93f)" style="fill: #08306b"/>
    <path d="M 187.425 472.533429 
L 219.726 472.533429 
L 219.726 534.751714 
L 187.425 534.751714 
L 187.425 472.533429 
" clip-path="url(#p5e6ef9a93f)" style="fill: #08306b"/>
    <path d="M 219.726 472.533429 
L 252.027 472.533429 
L 252.027 534.751714 
L 219.726 534.751714 
L 219.726 472.533429 
" clip-path="url(#p5e6ef9a93f)" style="fill: #08306b"/>
    <path d="M 252.027 472.533429 
L 284.328 472.533429 
L 284.328 534.751714 
L 252.027 534.751714 
L 252.027 472.533429 
" clip-path="url(#p5e6ef9a93f)" style="fill: #08306b"/>
    <path d="M 284.328 472.533429 
L 316.629 472.533429 
L 316.629 534.751714 
L 284.328 534.751714 
L 284.328 472.533429 
" clip-path="url(#p5e6ef9a93f)" style="fill: #08306b"/>
    <path d="M 316.629 472.533429 
L 348.93 472.533429 
L 348.93 534.751714 
L 316.629 534.751714 
L 316.629 472.533429 
" clip-path="url(#p5e6ef9a93f)" style="fill: #08306b"/>
    <path d="M 348.93 472.533429 
L 381.231 472.533429 
L 381.231 534.751714 
L 348.93 534.751714 
L 348.93 472.533429 
" clip-path="url(#p5e6ef9a93f)" style="fill: #08306b"/>
    <path d="M 381.231 472.533429 
L 413.532 472.533429 
L 413.532 534.751714 
L 381.231 534.751714 
L 381.231 472.533429 
" clip-path="url(#p5e6ef9a93f)" style="fill: #08306b"/>
    <path d="M 413.532 472.533429 
L 445.833 472.533429 
L 445.833 534.751714 
L 413.532 534.751714 
L 413.532 472.533429 
" clip-path="url(#p5e6ef9a93f)" style="fill: #08306b"/>
    <path d="M 445.833 472.533429 
L 478.134 472.533429 
L 478.134 534.751714 
L 445.833 534.751714 
L 445.833 472.533429 
" clip-path="url(#p5e6ef9a93f)" style="fill: #08306b"/>
    <path d="M 478.134 472.533429 
L 510.435 472.533429 
L 510.435 534.751714 
L 478.134 534.751714 
L 478.134 472.533429 
" clip-path="url(#p5e6ef9a93f)" style="fill: #08306b"/>
    <path d="M 510.435 472.533429 
L 542.736 472.533429 
L 542.736 534.751714 
L 510.435 534.751714 
L 510.435 472.533429 
" clip-path="url(#p5e6ef9a93f)" style="fill: #08306b"/>
    <path d="M 542.736 472.533429 
L 575.037 472.533429 
L 575.037 534.751714 
L 542.736 534.751714 
L 542.736 472.533429 
" clip-path="url(#p5e6ef9a93f)" style="fill: #08306b"/>
    <path d="M 575.037 472.533429 
L 607.338 472.533429 
L 607.338 534.751714 
L 575.037 534.751714 
L 575.037 472.533429 
" clip-path="url(#p5e6ef9a93f)" style="fill: #f7fbff"/>
    <path d="M 607.338 472.533429 
L 639.639 472.533429 
L 639.639 534.751714 
L 607.338 534.751714 
L 607.338 472.533429 
" clip-path="url(#p5e6ef9a93f)" style="fill: #f7fbff"/>
    <path d="M 639.639 472.533429 
L 671.94 472.533429 
L 671.94 534.751714 
L 639.639 534.751714 
L 639.639 472.533429 
" clip-path="url(#p5e6ef9a93f)" style="fill: #f7fbff"/>
    <path d="M 155.124 534.751714 
L 187.425 534.751714 
L 187.425 596.97 
L 155.124 596.97 
L 155.124 534.751714 
" clip-path="url(#p5e6ef9a93f)" style="fill: #08306b"/>
    <path d="M 187.425 534.751714 
L 219.726 534.751714 
L 219.726 596.97 
L 187.425 596.97 
L 187.425 534.751714 
" clip-path="url(#p5e6ef9a93f)" style="fill: #08306b"/>
    <path d="M 219.726 534.751714 
L 252.027 534.751714 
L 252.027 596.97 
L 219.726 596.97 
L 219.726 534.751714 
" clip-path="url(#p5e6ef9a93f)" style="fill: #08306b"/>
    <path d="M 252.027 534.751714 
L 284.328 534.751714 
L 284.328 596.97 
L 252.027 596.97 
L 252.027 534.751714 
" clip-path="url(#p5e6ef9a93f)" style="fill: #08306b"/>
    <path d="M 284.328 534.751714 
L 316.629 534.751714 
L 316.629 596.97 
L 284.328 596.97 
L 284.328 534.751714 
" clip-path="url(#p5e6ef9a93f)" style="fill: #08306b"/>
    <path d="M 316.629 534.751714 
L 348.93 534.751714 
L 348.93 596.97 
L 316.629 596.97 
L 316.629 534.751714 
" clip-path="url(#p5e6ef9a93f)" style="fill: #08306b"/>
    <path d="M 348.93 534.751714 
L 381.231 534.751714 
L 381.231 596.97 
L 348.93 596.97 
L 348.93 534.751714 
" clip-path="url(#p5e6ef9a93f)" style="fill: #08306b"/>
    <path d="M 381.231 534.751714 
L 413.532 534.751714 
L 413.532 596.97 
L 381.231 596.97 
L 381.231 534.751714 
" clip-path="url(#p5e6ef9a93f)" style="fill: #08306b"/>
    <path d="M 413.532 534.751714 
L 445.833 534.751714 
L 445.833 596.97 
L 413.532 596.97 
L 413.532 534.751714 
" clip-path="url(#p5e6ef9a93f)" style="fill: #08306b"/>
    <path d="M 445.833 534.751714 
L 478.134 534.751714 
L 478.134 596.97 
L 445.833 596.97 
L 445.833 534.751714 
" clip-path="url(#p5e6ef9a93f)" style="fill: #08306b"/>
    <path d="M 478.134 534.751714 
L 510.435 534.751714 
L 510.435 596.97 
L 478.134 596.97 
L 478.134 534.751714 
" clip-path="url(#p5e6ef9a93f)" style="fill: #08306b"/>
    <path d="M 510.435 534.751714 
L 542.736 534.751714 
L 542.736 596.97 
L 510.435 596.97 
L 510.435 534.751714 
" clip-path="url(#p5e6ef9a93f)" style="fill: #08306b"/>
    <path d="M 542.736 534.751714 
L 575.037 534.751714 
L 575.037 596.97 
L 542.736 596.97 
L 542.736 534.751714 
" clip-path="url(#p5e6ef9a93f)" style="fill: #08306b"/>
    <path d="M 575.037 534.751714 
L 607.338 534.751714 
L 607.338 596.97 
L 575.037 596.97 
L 575.037 534.751714 
" clip-path="url(#p5e6ef9a93f)" style="fill: #f7fbff"/>
    <path d="M 607.338 534.751714 
L 639.639 534.751714 
L 639.639 596.97 
L 607.338 596.97 
L 607.338 534.751714 
" clip-path="url(#p5e6ef9a93f)" style="fill: #f7fbff"/>
    <path d="M 639.639 534.751714 
L 671.94 534.751714 
L 671.94 596.97 
L 639.639 596.97 
L 639.639 534.751714 
" clip-path="url(#p5e6ef9a93f)" style="fill: #f7fbff"/>
   </g>
   <g id="text_26">
    <!-- 1 -->
    <g style="fill: #ffffff" transform="translate(167.457 195.862393) scale(0.12 -0.12)">
     <use xlink:href="#DejaVuSans-31"/>
    </g>
   </g>
   <g id="text_27">
    <!-- 1 -->
    <g style="fill: #ffffff" transform="translate(199.758 195.862393) scale(0.12 -0.12)">
     <use xlink:href="#DejaVuSans-31"/>
    </g>
   </g>
   <g id="text_28">
    <!-- 1 -->
    <g style="fill: #ffffff" transform="translate(232.059 195.862393) scale(0.12 -0.12)">
     <use xlink:href="#DejaVuSans-31"/>
    </g>
   </g>
   <g id="text_29">
    <!-- 1 -->
    <g style="fill: #ffffff" transform="translate(264.36 195.862393) scale(0.12 -0.12)">
     <use xlink:href="#DejaVuSans-31"/>
    </g>
   </g>
   <g id="text_30">
    <!-- 1 -->
    <g style="fill: #ffffff" transform="translate(296.661 195.862393) scale(0.12 -0.12)">
     <use xlink:href="#DejaVuSans-31"/>
    </g>
   </g>
   <g id="text_31">
    <!-- 1 -->
    <g style="fill: #ffffff" transform="translate(328.962 195.862393) scale(0.12 -0.12)">
     <use xlink:href="#DejaVuSans-31"/>
    </g>
   </g>
   <g id="text_32">
    <!-- 1 -->
    <g style="fill: #ffffff" transform="translate(361.263 195.862393) scale(0.12 -0.12)">
     <use xlink:href="#DejaVuSans-31"/>
    </g>
   </g>
   <g id="text_33">
    <!-- 1 -->
    <g style="fill: #ffffff" transform="translate(393.564 195.862393) scale(0.12 -0.12)">
     <use xlink:href="#DejaVuSans-31"/>
    </g>
   </g>
   <g id="text_34">
    <!-- 0 -->
    <g style="fill: #262626" transform="translate(425.865 195.862393) scale(0.12 -0.12)">
     <use xlink:href="#DejaVuSans-30"/>
    </g>
   </g>
   <g id="text_35">
    <!-- 0 -->
    <g style="fill: #262626" transform="translate(458.166 195.862393) scale(0.12 -0.12)">
     <use xlink:href="#DejaVuSans-30"/>
    </g>
   </g>
   <g id="text_36">
    <!-- 0 -->
    <g style="fill: #262626" transform="translate(490.467 195.862393) scale(0.12 -0.12)">
     <use xlink:href="#DejaVuSans-30"/>
    </g>
   </g>
   <g id="text_37">
    <!-- 0 -->
    <g style="fill: #262626" transform="translate(522.768 195.862393) scale(0.12 -0.12)">
     <use xlink:href="#DejaVuSans-30"/>
    </g>
   </g>
   <g id="text_38">
    <!-- 0 -->
    <g style="fill: #262626" transform="translate(555.069 195.862393) scale(0.12 -0.12)">
     <use xlink:href="#DejaVuSans-30"/>
    </g>
   </g>
   <g id="text_39">
    <!-- 1 -->
    <g style="fill: #ffffff" transform="translate(587.37 195.862393) scale(0.12 -0.12)">
     <use xlink:href="#DejaVuSans-31"/>
    </g>
   </g>
   <g id="text_40">
    <!-- 0 -->
    <g style="fill: #262626" transform="translate(619.671 195.862393) scale(0.12 -0.12)">
     <use xlink:href="#DejaVuSans-30"/>
    </g>
   </g>
   <g id="text_41">
    <!-- 0 -->
    <g style="fill: #262626" transform="translate(651.972 195.862393) scale(0.12 -0.12)">
     <use xlink:href="#DejaVuSans-30"/>
    </g>
   </g>
   <g id="text_42">
    <!-- 1 -->
    <g style="fill: #ffffff" transform="translate(167.457 258.080679) scale(0.12 -0.12)">
     <use xlink:href="#DejaVuSans-31"/>
    </g>
   </g>
   <g id="text_43">
    <!-- 1 -->
    <g style="fill: #ffffff" transform="translate(199.758 258.080679) scale(0.12 -0.12)">
     <use xlink:href="#DejaVuSans-31"/>
    </g>
   </g>
   <g id="text_44">
    <!-- 1 -->
    <g style="fill: #ffffff" transform="translate(232.059 258.080679) scale(0.12 -0.12)">
     <use xlink:href="#DejaVuSans-31"/>
    </g>
   </g>
   <g id="text_45">
    <!-- 1 -->
    <g style="fill: #ffffff" transform="translate(264.36 258.080679) scale(0.12 -0.12)">
     <use xlink:href="#DejaVuSans-31"/>
    </g>
   </g>
   <g id="text_46">
    <!-- 1 -->
    <g style="fill: #ffffff" transform="translate(296.661 258.080679) scale(0.12 -0.12)">
     <use xlink:href="#DejaVuSans-31"/>
    </g>
   </g>
   <g id="text_47">
    <!-- 1 -->
    <g style="fill: #ffffff" transform="translate(328.962 258.080679) scale(0.12 -0.12)">
     <use xlink:href="#DejaVuSans-31"/>
    </g>
   </g>
   <g id="text_48">
    <!-- 1 -->
    <g style="fill: #ffffff" transform="translate(361.263 258.080679) scale(0.12 -0.12)">
     <use xlink:href="#DejaVuSans-31"/>
    </g>
   </g>
   <g id="text_49">
    <!-- 1 -->
    <g style="fill: #ffffff" transform="translate(393.564 258.080679) scale(0.12 -0.12)">
     <use xlink:href="#DejaVuSans-31"/>
    </g>
   </g>
   <g id="text_50">
    <!-- 1 -->
    <g style="fill: #ffffff" transform="translate(425.865 258.080679) scale(0.12 -0.12)">
     <use xlink:href="#DejaVuSans-31"/>
    </g>
   </g>
   <g id="text_51">
    <!-- 1 -->
    <g style="fill: #ffffff" transform="translate(458.166 258.080679) scale(0.12 -0.12)">
     <use xlink:href="#DejaVuSans-31"/>
    </g>
   </g>
   <g id="text_52">
    <!-- 1 -->
    <g style="fill: #ffffff" transform="translate(490.467 258.080679) scale(0.12 -0.12)">
     <use xlink:href="#DejaVuSans-31"/>
    </g>
   </g>
   <g id="text_53">
    <!-- 1 -->
    <g style="fill: #ffffff" transform="translate(522.768 258.080679) scale(0.12 -0.12)">
     <use xlink:href="#DejaVuSans-31"/>
    </g>
   </g>
   <g id="text_54">
    <!-- 1 -->
    <g style="fill: #ffffff" transform="translate(555.069 258.080679) scale(0.12 -0.12)">
     <use xlink:href="#DejaVuSans-31"/>
    </g>
   </g>
   <g id="text_55">
    <!-- 1 -->
    <g style="fill: #ffffff" transform="translate(587.37 258.080679) scale(0.12 -0.12)">
     <use xlink:href="#DejaVuSans-31"/>
    </g>
   </g>
   <g id="text_56">
    <!-- 1 -->
    <g style="fill: #ffffff" transform="translate(619.671 258.080679) scale(0.12 -0.12)">
     <use xlink:href="#DejaVuSans-31"/>
    </g>
   </g>
   <g id="text_57">
    <!-- 1 -->
    <g style="fill: #ffffff" transform="translate(651.972 258.080679) scale(0.12 -0.12)">
     <use xlink:href="#DejaVuSans-31"/>
    </g>
   </g>
   <g id="text_58">
    <!-- 1 -->
    <g style="fill: #ffffff" transform="translate(167.457 320.298964) scale(0.12 -0.12)">
     <use xlink:href="#DejaVuSans-31"/>
    </g>
   </g>
   <g id="text_59">
    <!-- 1 -->
    <g style="fill: #ffffff" transform="translate(199.758 320.298964) scale(0.12 -0.12)">
     <use xlink:href="#DejaVuSans-31"/>
    </g>
   </g>
   <g id="text_60">
    <!-- 1 -->
    <g style="fill: #ffffff" transform="translate(232.059 320.298964) scale(0.12 -0.12)">
     <use xlink:href="#DejaVuSans-31"/>
    </g>
   </g>
   <g id="text_61">
    <!-- 1 -->
    <g style="fill: #ffffff" transform="translate(264.36 320.298964) scale(0.12 -0.12)">
     <use xlink:href="#DejaVuSans-31"/>
    </g>
   </g>
   <g id="text_62">
    <!-- 1 -->
    <g style="fill: #ffffff" transform="translate(296.661 320.298964) scale(0.12 -0.12)">
     <use xlink:href="#DejaVuSans-31"/>
    </g>
   </g>
   <g id="text_63">
    <!-- 1 -->
    <g style="fill: #ffffff" transform="translate(328.962 320.298964) scale(0.12 -0.12)">
     <use xlink:href="#DejaVuSans-31"/>
    </g>
   </g>
   <g id="text_64">
    <!-- 1 -->
    <g style="fill: #ffffff" transform="translate(361.263 320.298964) scale(0.12 -0.12)">
     <use xlink:href="#DejaVuSans-31"/>
    </g>
   </g>
   <g id="text_65">
    <!-- 1 -->
    <g style="fill: #ffffff" transform="translate(393.564 320.298964) scale(0.12 -0.12)">
     <use xlink:href="#DejaVuSans-31"/>
    </g>
   </g>
   <g id="text_66">
    <!-- 1 -->
    <g style="fill: #ffffff" transform="translate(425.865 320.298964) scale(0.12 -0.12)">
     <use xlink:href="#DejaVuSans-31"/>
    </g>
   </g>
   <g id="text_67">
    <!-- 1 -->
    <g style="fill: #ffffff" transform="translate(458.166 320.298964) scale(0.12 -0.12)">
     <use xlink:href="#DejaVuSans-31"/>
    </g>
   </g>
   <g id="text_68">
    <!-- 1 -->
    <g style="fill: #ffffff" transform="translate(490.467 320.298964) scale(0.12 -0.12)">
     <use xlink:href="#DejaVuSans-31"/>
    </g>
   </g>
   <g id="text_69">
    <!-- 1 -->
    <g style="fill: #ffffff" transform="translate(522.768 320.298964) scale(0.12 -0.12)">
     <use xlink:href="#DejaVuSans-31"/>
    </g>
   </g>
   <g id="text_70">
    <!-- 1 -->
    <g style="fill: #ffffff" transform="translate(555.069 320.298964) scale(0.12 -0.12)">
     <use xlink:href="#DejaVuSans-31"/>
    </g>
   </g>
   <g id="text_71">
    <!-- 0 -->
    <g style="fill: #262626" transform="translate(587.37 320.298964) scale(0.12 -0.12)">
     <use xlink:href="#DejaVuSans-30"/>
    </g>
   </g>
   <g id="text_72">
    <!-- 1 -->
    <g style="fill: #ffffff" transform="translate(619.671 320.298964) scale(0.12 -0.12)">
     <use xlink:href="#DejaVuSans-31"/>
    </g>
   </g>
   <g id="text_73">
    <!-- 0 -->
    <g style="fill: #262626" transform="translate(651.972 320.298964) scale(0.12 -0.12)">
     <use xlink:href="#DejaVuSans-30"/>
    </g>
   </g>
   <g id="text_74">
    <!-- 1 -->
    <g style="fill: #ffffff" transform="translate(167.457 382.51725) scale(0.12 -0.12)">
     <use xlink:href="#DejaVuSans-31"/>
    </g>
   </g>
   <g id="text_75">
    <!-- 1 -->
    <g style="fill: #ffffff" transform="translate(199.758 382.51725) scale(0.12 -0.12)">
     <use xlink:href="#DejaVuSans-31"/>
    </g>
   </g>
   <g id="text_76">
    <!-- 1 -->
    <g style="fill: #ffffff" transform="translate(232.059 382.51725) scale(0.12 -0.12)">
     <use xlink:href="#DejaVuSans-31"/>
    </g>
   </g>
   <g id="text_77">
    <!-- 1 -->
    <g style="fill: #ffffff" transform="translate(264.36 382.51725) scale(0.12 -0.12)">
     <use xlink:href="#DejaVuSans-31"/>
    </g>
   </g>
   <g id="text_78">
    <!-- 1 -->
    <g style="fill: #ffffff" transform="translate(296.661 382.51725) scale(0.12 -0.12)">
     <use xlink:href="#DejaVuSans-31"/>
    </g>
   </g>
   <g id="text_79">
    <!-- 1 -->
    <g style="fill: #ffffff" transform="translate(328.962 382.51725) scale(0.12 -0.12)">
     <use xlink:href="#DejaVuSans-31"/>
    </g>
   </g>
   <g id="text_80">
    <!-- 1 -->
    <g style="fill: #ffffff" transform="translate(361.263 382.51725) scale(0.12 -0.12)">
     <use xlink:href="#DejaVuSans-31"/>
    </g>
   </g>
   <g id="text_81">
    <!-- 1 -->
    <g style="fill: #ffffff" transform="translate(393.564 382.51725) scale(0.12 -0.12)">
     <use xlink:href="#DejaVuSans-31"/>
    </g>
   </g>
   <g id="text_82">
    <!-- 1 -->
    <g style="fill: #ffffff" transform="translate(425.865 382.51725) scale(0.12 -0.12)">
     <use xlink:href="#DejaVuSans-31"/>
    </g>
   </g>
   <g id="text_83">
    <!-- 1 -->
    <g style="fill: #ffffff" transform="translate(458.166 382.51725) scale(0.12 -0.12)">
     <use xlink:href="#DejaVuSans-31"/>
    </g>
   </g>
   <g id="text_84">
    <!-- 1 -->
    <g style="fill: #ffffff" transform="translate(490.467 382.51725) scale(0.12 -0.12)">
     <use xlink:href="#DejaVuSans-31"/>
    </g>
   </g>
   <g id="text_85">
    <!-- 1 -->
    <g style="fill: #ffffff" transform="translate(522.768 382.51725) scale(0.12 -0.12)">
     <use xlink:href="#DejaVuSans-31"/>
    </g>
   </g>
   <g id="text_86">
    <!-- 1 -->
    <g style="fill: #ffffff" transform="translate(555.069 382.51725) scale(0.12 -0.12)">
     <use xlink:href="#DejaVuSans-31"/>
    </g>
   </g>
   <g id="text_87">
    <!-- 1 -->
    <g style="fill: #ffffff" transform="translate(587.37 382.51725) scale(0.12 -0.12)">
     <use xlink:href="#DejaVuSans-31"/>
    </g>
   </g>
   <g id="text_88">
    <!-- 0 -->
    <g style="fill: #262626" transform="translate(619.671 382.51725) scale(0.12 -0.12)">
     <use xlink:href="#DejaVuSans-30"/>
    </g>
   </g>
   <g id="text_89">
    <!-- 0 -->
    <g style="fill: #262626" transform="translate(651.972 382.51725) scale(0.12 -0.12)">
     <use xlink:href="#DejaVuSans-30"/>
    </g>
   </g>
   <g id="text_90">
    <!-- 1 -->
    <g style="fill: #ffffff" transform="translate(167.457 444.735536) scale(0.12 -0.12)">
     <use xlink:href="#DejaVuSans-31"/>
    </g>
   </g>
   <g id="text_91">
    <!-- 1 -->
    <g style="fill: #ffffff" transform="translate(199.758 444.735536) scale(0.12 -0.12)">
     <use xlink:href="#DejaVuSans-31"/>
    </g>
   </g>
   <g id="text_92">
    <!-- 1 -->
    <g style="fill: #ffffff" transform="translate(232.059 444.735536) scale(0.12 -0.12)">
     <use xlink:href="#DejaVuSans-31"/>
    </g>
   </g>
   <g id="text_93">
    <!-- 1 -->
    <g style="fill: #ffffff" transform="translate(264.36 444.735536) scale(0.12 -0.12)">
     <use xlink:href="#DejaVuSans-31"/>
    </g>
   </g>
   <g id="text_94">
    <!-- 1 -->
    <g style="fill: #ffffff" transform="translate(296.661 444.735536) scale(0.12 -0.12)">
     <use xlink:href="#DejaVuSans-31"/>
    </g>
   </g>
   <g id="text_95">
    <!-- 1 -->
    <g style="fill: #ffffff" transform="translate(328.962 444.735536) scale(0.12 -0.12)">
     <use xlink:href="#DejaVuSans-31"/>
    </g>
   </g>
   <g id="text_96">
    <!-- 1 -->
    <g style="fill: #ffffff" transform="translate(361.263 444.735536) scale(0.12 -0.12)">
     <use xlink:href="#DejaVuSans-31"/>
    </g>
   </g>
   <g id="text_97">
    <!-- 1 -->
    <g style="fill: #ffffff" transform="translate(393.564 444.735536) scale(0.12 -0.12)">
     <use xlink:href="#DejaVuSans-31"/>
    </g>
   </g>
   <g id="text_98">
    <!-- 1 -->
    <g style="fill: #ffffff" transform="translate(425.865 444.735536) scale(0.12 -0.12)">
     <use xlink:href="#DejaVuSans-31"/>
    </g>
   </g>
   <g id="text_99">
    <!-- 1 -->
    <g style="fill: #ffffff" transform="translate(458.166 444.735536) scale(0.12 -0.12)">
     <use xlink:href="#DejaVuSans-31"/>
    </g>
   </g>
   <g id="text_100">
    <!-- 1 -->
    <g style="fill: #ffffff" transform="translate(490.467 444.735536) scale(0.12 -0.12)">
     <use xlink:href="#DejaVuSans-31"/>
    </g>
   </g>
   <g id="text_101">
    <!-- 1 -->
    <g style="fill: #ffffff" transform="translate(522.768 444.735536) scale(0.12 -0.12)">
     <use xlink:href="#DejaVuSans-31"/>
    </g>
   </g>
   <g id="text_102">
    <!-- 1 -->
    <g style="fill: #ffffff" transform="translate(555.069 444.735536) scale(0.12 -0.12)">
     <use xlink:href="#DejaVuSans-31"/>
    </g>
   </g>
   <g id="text_103">
    <!-- 0 -->
    <g style="fill: #262626" transform="translate(587.37 444.735536) scale(0.12 -0.12)">
     <use xlink:href="#DejaVuSans-30"/>
    </g>
   </g>
   <g id="text_104">
    <!-- 0 -->
    <g style="fill: #262626" transform="translate(619.671 444.735536) scale(0.12 -0.12)">
     <use xlink:href="#DejaVuSans-30"/>
    </g>
   </g>
   <g id="text_105">
    <!-- 0 -->
    <g style="fill: #262626" transform="translate(651.972 444.735536) scale(0.12 -0.12)">
     <use xlink:href="#DejaVuSans-30"/>
    </g>
   </g>
   <g id="text_106">
    <!-- 1 -->
    <g style="fill: #ffffff" transform="translate(167.457 506.953821) scale(0.12 -0.12)">
     <use xlink:href="#DejaVuSans-31"/>
    </g>
   </g>
   <g id="text_107">
    <!-- 1 -->
    <g style="fill: #ffffff" transform="translate(199.758 506.953821) scale(0.12 -0.12)">
     <use xlink:href="#DejaVuSans-31"/>
    </g>
   </g>
   <g id="text_108">
    <!-- 1 -->
    <g style="fill: #ffffff" transform="translate(232.059 506.953821) scale(0.12 -0.12)">
     <use xlink:href="#DejaVuSans-31"/>
    </g>
   </g>
   <g id="text_109">
    <!-- 1 -->
    <g style="fill: #ffffff" transform="translate(264.36 506.953821) scale(0.12 -0.12)">
     <use xlink:href="#DejaVuSans-31"/>
    </g>
   </g>
   <g id="text_110">
    <!-- 1 -->
    <g style="fill: #ffffff" transform="translate(296.661 506.953821) scale(0.12 -0.12)">
     <use xlink:href="#DejaVuSans-31"/>
    </g>
   </g>
   <g id="text_111">
    <!-- 1 -->
    <g style="fill: #ffffff" transform="translate(328.962 506.953821) scale(0.12 -0.12)">
     <use xlink:href="#DejaVuSans-31"/>
    </g>
   </g>
   <g id="text_112">
    <!-- 1 -->
    <g style="fill: #ffffff" transform="translate(361.263 506.953821) scale(0.12 -0.12)">
     <use xlink:href="#DejaVuSans-31"/>
    </g>
   </g>
   <g id="text_113">
    <!-- 1 -->
    <g style="fill: #ffffff" transform="translate(393.564 506.953821) scale(0.12 -0.12)">
     <use xlink:href="#DejaVuSans-31"/>
    </g>
   </g>
   <g id="text_114">
    <!-- 1 -->
    <g style="fill: #ffffff" transform="translate(425.865 506.953821) scale(0.12 -0.12)">
     <use xlink:href="#DejaVuSans-31"/>
    </g>
   </g>
   <g id="text_115">
    <!-- 1 -->
    <g style="fill: #ffffff" transform="translate(458.166 506.953821) scale(0.12 -0.12)">
     <use xlink:href="#DejaVuSans-31"/>
    </g>
   </g>
   <g id="text_116">
    <!-- 1 -->
    <g style="fill: #ffffff" transform="translate(490.467 506.953821) scale(0.12 -0.12)">
     <use xlink:href="#DejaVuSans-31"/>
    </g>
   </g>
   <g id="text_117">
    <!-- 1 -->
    <g style="fill: #ffffff" transform="translate(522.768 506.953821) scale(0.12 -0.12)">
     <use xlink:href="#DejaVuSans-31"/>
    </g>
   </g>
   <g id="text_118">
    <!-- 1 -->
    <g style="fill: #ffffff" transform="translate(555.069 506.953821) scale(0.12 -0.12)">
     <use xlink:href="#DejaVuSans-31"/>
    </g>
   </g>
   <g id="text_119">
    <!-- 0 -->
    <g style="fill: #262626" transform="translate(587.37 506.953821) scale(0.12 -0.12)">
     <use xlink:href="#DejaVuSans-30"/>
    </g>
   </g>
   <g id="text_120">
    <!-- 0 -->
    <g style="fill: #262626" transform="translate(619.671 506.953821) scale(0.12 -0.12)">
     <use xlink:href="#DejaVuSans-30"/>
    </g>
   </g>
   <g id="text_121">
    <!-- 0 -->
    <g style="fill: #262626" transform="translate(651.972 506.953821) scale(0.12 -0.12)">
     <use xlink:href="#DejaVuSans-30"/>
    </g>
   </g>
   <g id="text_122">
    <!-- 1 -->
    <g style="fill: #ffffff" transform="translate(167.457 569.172107) scale(0.12 -0.12)">
     <use xlink:href="#DejaVuSans-31"/>
    </g>
   </g>
   <g id="text_123">
    <!-- 1 -->
    <g style="fill: #ffffff" transform="translate(199.758 569.172107) scale(0.12 -0.12)">
     <use xlink:href="#DejaVuSans-31"/>
    </g>
   </g>
   <g id="text_124">
    <!-- 1 -->
    <g style="fill: #ffffff" transform="translate(232.059 569.172107) scale(0.12 -0.12)">
     <use xlink:href="#DejaVuSans-31"/>
    </g>
   </g>
   <g id="text_125">
    <!-- 1 -->
    <g style="fill: #ffffff" transform="translate(264.36 569.172107) scale(0.12 -0.12)">
     <use xlink:href="#DejaVuSans-31"/>
    </g>
   </g>
   <g id="text_126">
    <!-- 1 -->
    <g style="fill: #ffffff" transform="translate(296.661 569.172107) scale(0.12 -0.12)">
     <use xlink:href="#DejaVuSans-31"/>
    </g>
   </g>
   <g id="text_127">
    <!-- 1 -->
    <g style="fill: #ffffff" transform="translate(328.962 569.172107) scale(0.12 -0.12)">
     <use xlink:href="#DejaVuSans-31"/>
    </g>
   </g>
   <g id="text_128">
    <!-- 1 -->
    <g style="fill: #ffffff" transform="translate(361.263 569.172107) scale(0.12 -0.12)">
     <use xlink:href="#DejaVuSans-31"/>
    </g>
   </g>
   <g id="text_129">
    <!-- 1 -->
    <g style="fill: #ffffff" transform="translate(393.564 569.172107) scale(0.12 -0.12)">
     <use xlink:href="#DejaVuSans-31"/>
    </g>
   </g>
   <g id="text_130">
    <!-- 1 -->
    <g style="fill: #ffffff" transform="translate(425.865 569.172107) scale(0.12 -0.12)">
     <use xlink:href="#DejaVuSans-31"/>
    </g>
   </g>
   <g id="text_131">
    <!-- 1 -->
    <g style="fill: #ffffff" transform="translate(458.166 569.172107) scale(0.12 -0.12)">
     <use xlink:href="#DejaVuSans-31"/>
    </g>
   </g>
   <g id="text_132">
    <!-- 1 -->
    <g style="fill: #ffffff" transform="translate(490.467 569.172107) scale(0.12 -0.12)">
     <use xlink:href="#DejaVuSans-31"/>
    </g>
   </g>
   <g id="text_133">
    <!-- 1 -->
    <g style="fill: #ffffff" transform="translate(522.768 569.172107) scale(0.12 -0.12)">
     <use xlink:href="#DejaVuSans-31"/>
    </g>
   </g>
   <g id="text_134">
    <!-- 1 -->
    <g style="fill: #ffffff" transform="translate(555.069 569.172107) scale(0.12 -0.12)">
     <use xlink:href="#DejaVuSans-31"/>
    </g>
   </g>
   <g id="text_135">
    <!-- 0 -->
    <g style="fill: #262626" transform="translate(587.37 569.172107) scale(0.12 -0.12)">
     <use xlink:href="#DejaVuSans-30"/>
    </g>
   </g>
   <g id="text_136">
    <!-- 0 -->
    <g style="fill: #262626" transform="translate(619.671 569.172107) scale(0.12 -0.12)">
     <use xlink:href="#DejaVuSans-30"/>
    </g>
   </g>
   <g id="text_137">
    <!-- 0 -->
    <g style="fill: #262626" transform="translate(651.972 569.172107) scale(0.12 -0.12)">
     <use xlink:href="#DejaVuSans-30"/>
    </g>
   </g>
  </g>
  <g id="text_138">
   <!-- HPCG (xhpcg) Compatibility for poodle4 -->
   <g style="fill: #262626" transform="translate(216.16875 25.34175) scale(0.144 -0.144)">
    <defs>
     <path id="DejaVuSans-48" d="M 628 4666 
L 1259 4666 
L 1259 2753 
L 3553 2753 
L 3553 4666 
L 4184 4666 
L 4184 0 
L 3553 0 
L 3553 2222 
L 1259 2222 
L 1259 0 
L 628 0 
L 628 4666 
z
" transform="scale(0.015625)"/>
     <path id="DejaVuSans-50" d="M 1259 4147 
L 1259 2394 
L 2053 2394 
Q 2494 2394 2734 2622 
Q 2975 2850 2975 3272 
Q 2975 3691 2734 3919 
Q 2494 4147 2053 4147 
L 1259 4147 
z
M 628 4666 
L 2053 4666 
Q 2838 4666 3239 4311 
Q 3641 3956 3641 3272 
Q 3641 2581 3239 2228 
Q 2838 1875 2053 1875 
L 1259 1875 
L 1259 0 
L 628 0 
L 628 4666 
z
" transform="scale(0.015625)"/>
     <path id="DejaVuSans-43" d="M 4122 4306 
L 4122 3641 
Q 3803 3938 3442 4084 
Q 3081 4231 2675 4231 
Q 1875 4231 1450 3742 
Q 1025 3253 1025 2328 
Q 1025 1406 1450 917 
Q 1875 428 2675 428 
Q 3081 428 3442 575 
Q 3803 722 4122 1019 
L 4122 359 
Q 3791 134 3420 21 
Q 3050 -91 2638 -91 
Q 1578 -91 968 557 
Q 359 1206 359 2328 
Q 359 3453 968 4101 
Q 1578 4750 2638 4750 
Q 3056 4750 3426 4639 
Q 3797 4528 4122 4306 
z
" transform="scale(0.015625)"/>
     <path id="DejaVuSans-47" d="M 3809 666 
L 3809 1919 
L 2778 1919 
L 2778 2438 
L 4434 2438 
L 4434 434 
Q 4069 175 3628 42 
Q 3188 -91 2688 -91 
Q 1594 -91 976 548 
Q 359 1188 359 2328 
Q 359 3472 976 4111 
Q 1594 4750 2688 4750 
Q 3144 4750 3555 4637 
Q 3966 4525 4313 4306 
L 4313 3634 
Q 3963 3931 3569 4081 
Q 3175 4231 2741 4231 
Q 1884 4231 1454 3753 
Q 1025 3275 1025 2328 
Q 1025 1384 1454 906 
Q 1884 428 2741 428 
Q 3075 428 3337 486 
Q 3600 544 3809 666 
z
" transform="scale(0.015625)"/>
     <path id="DejaVuSans-20" transform="scale(0.015625)"/>
     <path id="DejaVuSans-28" d="M 1984 4856 
Q 1566 4138 1362 3434 
Q 1159 2731 1159 2009 
Q 1159 1288 1364 580 
Q 1569 -128 1984 -844 
L 1484 -844 
Q 1016 -109 783 600 
Q 550 1309 550 2009 
Q 550 2706 781 3412 
Q 1013 4119 1484 4856 
L 1984 4856 
z
" transform="scale(0.015625)"/>
     <path id="DejaVuSans-29" d="M 513 4856 
L 1013 4856 
Q 1481 4119 1714 3412 
Q 1947 2706 1947 2009 
Q 1947 1309 1714 600 
Q 1481 -109 1013 -844 
L 513 -844 
Q 928 -128 1133 580 
Q 1338 1288 1338 2009 
Q 1338 2731 1133 3434 
Q 928 4138 513 4856 
z
" transform="scale(0.015625)"/>
    </defs>
    <use xlink:href="#DejaVuSans-48"/>
    <use xlink:href="#DejaVuSans-50" x="75.195312"/>
    <use xlink:href="#DejaVuSans-43" x="135.498047"/>
    <use xlink:href="#DejaVuSans-47" x="205.322266"/>
    <use xlink:href="#DejaVuSans-20" x="282.8125"/>
    <use xlink:href="#DejaVuSans-28" x="314.599609"/>
    <use xlink:href="#DejaVuSans-78" x="353.613281"/>
    <use xlink:href="#DejaVuSans-68" x="412.792969"/>
    <use xlink:href="#DejaVuSans-70" x="476.171875"/>
    <use xlink:href="#DejaVuSans-63" x="539.648438"/>
    <use xlink:href="#DejaVuSans-67" x="594.628906"/>
    <use xlink:href="#DejaVuSans-29" x="658.105469"/>
    <use xlink:href="#DejaVuSans-20" x="697.119141"/>
    <use xlink:href="#DejaVuSans-43" x="728.90625"/>
    <use xlink:href="#DejaVuSans-6f" x="798.730469"/>
    <use xlink:href="#DejaVuSans-6d" x="859.912109"/>
    <use xlink:href="#DejaVuSans-70" x="957.324219"/>
    <use xlink:href="#DejaVuSans-61" x="1020.800781"/>
    <use xlink:href="#DejaVuSans-74" x="1082.080078"/>
    <use xlink:href="#DejaVuSans-69" x="1121.289062"/>
    <use xlink:href="#DejaVuSans-62" x="1149.072266"/>
    <use xlink:href="#DejaVuSans-69" x="1212.548828"/>
    <use xlink:href="#DejaVuSans-6c" x="1240.332031"/>
    <use xlink:href="#DejaVuSans-69" x="1268.115234"/>
    <use xlink:href="#DejaVuSans-74" x="1295.898438"/>
    <use xlink:href="#DejaVuSans-79" x="1335.107422"/>
    <use xlink:href="#DejaVuSans-20" x="1394.287109"/>
    <use xlink:href="#DejaVuSans-66" x="1426.074219"/>
    <use xlink:href="#DejaVuSans-6f" x="1461.279297"/>
    <use xlink:href="#DejaVuSans-72" x="1522.460938"/>
    <use xlink:href="#DejaVuSans-20" x="1563.574219"/>
    <use xlink:href="#DejaVuSans-70" x="1595.361328"/>
    <use xlink:href="#DejaVuSans-6f" x="1658.837891"/>
    <use xlink:href="#DejaVuSans-6f" x="1720.019531"/>
    <use xlink:href="#DejaVuSans-64" x="1781.201172"/>
    <use xlink:href="#DejaVuSans-6c" x="1844.677734"/>
    <use xlink:href="#DejaVuSans-65" x="1872.460938"/>
    <use xlink:href="#DejaVuSans-34" x="1933.984375"/>
   </g>
  </g>
 </g>
 <defs>
  <clipPath id="p25cf34273a">
   <rect x="12.96" y="161.442" width="129.204" height="435.528"/>
  </clipPath>
  <clipPath id="pac50514cd6">
   <rect x="155.124" y="39.6" width="516.816" height="108.882"/>
  </clipPath>
  <clipPath id="p5e6ef9a93f">
   <rect x="155.124" y="161.442" width="516.816" height="435.528"/>
  </clipPath>
 </defs>
</svg>
